<svg width="378" height="89" viewBox="0 0 378 89" fill="none" xmlns="http://www.w3.org/2000/svg">
<path d="M0.320312 13V1.625H3.53125C4.52083 1.625 5.39583 1.84375 6.15625 2.28125C6.91667 2.71875 7.5026 3.34115 7.91406 4.14844C8.33073 4.95573 8.54167 5.88281 8.54688 6.92969V7.65625C8.54688 8.72917 8.33854 9.66927 7.92188 10.4766C7.51042 11.2839 6.91927 11.9036 6.14844 12.3359C5.38281 12.7682 4.48958 12.9896 3.46875 13H0.320312ZM1.82031 2.85938V11.7734H3.39844C4.55469 11.7734 5.45312 11.4141 6.09375 10.6953C6.73958 9.97656 7.0625 8.95312 7.0625 7.625V6.96094C7.0625 5.66927 6.75781 4.66667 6.14844 3.95312C5.54427 3.23438 4.6849 2.86979 3.57031 2.85938H1.82031ZM16.3125 13C16.2292 12.8333 16.1615 12.5365 16.1094 12.1094C15.4375 12.8073 14.6354 13.1562 13.7031 13.1562C12.8698 13.1562 12.1849 12.9219 11.6484 12.4531C11.1172 11.9792 10.8516 11.3802 10.8516 10.6562C10.8516 9.77604 11.1849 9.09375 11.8516 8.60938C12.5234 8.11979 13.4661 7.875 14.6797 7.875H16.0859V7.21094C16.0859 6.70573 15.9349 6.30469 15.6328 6.00781C15.3307 5.70573 14.8854 5.55469 14.2969 5.55469C13.7812 5.55469 13.349 5.6849 13 5.94531C12.651 6.20573 12.4766 6.52083 12.4766 6.89062H11.0234C11.0234 6.46875 11.1719 6.0625 11.4688 5.67188C11.7708 5.27604 12.1771 4.96354 12.6875 4.73438C13.2031 4.50521 13.7682 4.39062 14.3828 4.39062C15.3568 4.39062 16.1198 4.63542 16.6719 5.125C17.224 5.60938 17.5104 6.27865 17.5312 7.13281V11.0234C17.5312 11.7995 17.6302 12.4167 17.8281 12.875V13H16.3125ZM13.9141 11.8984C14.3672 11.8984 14.7969 11.7812 15.2031 11.5469C15.6094 11.3125 15.9036 11.0078 16.0859 10.6328V8.89844H14.9531C13.1823 8.89844 12.2969 9.41667 12.2969 10.4531C12.2969 10.9062 12.4479 11.2604 12.75 11.5156C13.0521 11.7708 13.4401 11.8984 13.9141 11.8984ZM25.2188 10.7578C25.2188 10.3672 25.0703 10.0651 24.7734 9.85156C24.4818 9.63281 23.9688 9.44531 23.2344 9.28906C22.5052 9.13281 21.9245 8.94531 21.4922 8.72656C21.0651 8.50781 20.7474 8.2474 20.5391 7.94531C20.3359 7.64323 20.2344 7.28385 20.2344 6.86719C20.2344 6.17448 20.526 5.58854 21.1094 5.10938C21.6979 4.63021 22.4479 4.39062 23.3594 4.39062C24.3177 4.39062 25.0938 4.63802 25.6875 5.13281C26.2865 5.6276 26.5859 6.26042 26.5859 7.03125H25.1328C25.1328 6.63542 24.9635 6.29427 24.625 6.00781C24.2917 5.72135 23.8698 5.57812 23.3594 5.57812C22.8333 5.57812 22.4219 5.69271 22.125 5.92188C21.8281 6.15104 21.6797 6.45052 21.6797 6.82031C21.6797 7.16927 21.8177 7.43229 22.0938 7.60938C22.3698 7.78646 22.8672 7.95573 23.5859 8.11719C24.3099 8.27865 24.8958 8.47135 25.3438 8.69531C25.7917 8.91927 26.1224 9.1901 26.3359 9.50781C26.5547 9.82031 26.6641 10.2031 26.6641 10.6562C26.6641 11.4115 26.362 12.0182 25.7578 12.4766C25.1536 12.9297 24.3698 13.1562 23.4062 13.1562C22.7292 13.1562 22.1302 13.0365 21.6094 12.7969C21.0885 12.5573 20.6797 12.224 20.3828 11.7969C20.0911 11.3646 19.9453 10.8984 19.9453 10.3984H21.3906C21.4167 10.8828 21.6094 11.2682 21.9688 11.5547C22.3333 11.8359 22.8125 11.9766 23.4062 11.9766C23.9531 11.9766 24.3906 11.8672 24.7188 11.6484C25.0521 11.4245 25.2188 11.1276 25.2188 10.7578ZM31.0078 2.5V4.54688H32.5859V5.66406H31.0078V10.9062C31.0078 11.2448 31.0781 11.5 31.2188 11.6719C31.3594 11.8385 31.599 11.9219 31.9375 11.9219C32.1042 11.9219 32.3333 11.8906 32.625 11.8281V13C32.2448 13.1042 31.875 13.1562 31.5156 13.1562C30.8698 13.1562 30.3828 12.9609 30.0547 12.5703C29.7266 12.1797 29.5625 11.625 29.5625 10.9062V5.66406H28.0234V4.54688H29.5625V2.5H31.0078ZM40 12.1641C39.4375 12.8255 38.612 13.1562 37.5234 13.1562C36.6224 13.1562 35.9349 12.8958 35.4609 12.375C34.9922 11.849 34.7552 11.0729 34.75 10.0469V4.54688H36.1953V10.0078C36.1953 11.2891 36.7161 11.9297 37.7578 11.9297C38.862 11.9297 39.5964 11.5182 39.9609 10.6953V4.54688H41.4062V13H40.0312L40 12.1641ZM48.1953 5.84375C47.9766 5.80729 47.7396 5.78906 47.4844 5.78906C46.5365 5.78906 45.8932 6.19271 45.5547 7V13H44.1094V4.54688H45.5156L45.5391 5.52344C46.013 4.76823 46.6849 4.39062 47.5547 4.39062C47.8359 4.39062 48.0495 4.42708 48.1953 4.5V5.84375ZM51.6016 13H50.1562V1H51.6016V13ZM59.6406 13C59.5573 12.8333 59.4896 12.5365 59.4375 12.1094C58.7656 12.8073 57.9635 13.1562 57.0312 13.1562C56.1979 13.1562 55.513 12.9219 54.9766 12.4531C54.4453 11.9792 54.1797 11.3802 54.1797 10.6562C54.1797 9.77604 54.513 9.09375 55.1797 8.60938C55.8516 8.11979 56.7943 7.875 58.0078 7.875H59.4141V7.21094C59.4141 6.70573 59.263 6.30469 58.9609 6.00781C58.6589 5.70573 58.2135 5.55469 57.625 5.55469C57.1094 5.55469 56.6771 5.6849 56.3281 5.94531C55.9792 6.20573 55.8047 6.52083 55.8047 6.89062H54.3516C54.3516 6.46875 54.5 6.0625 54.7969 5.67188C55.099 5.27604 55.5052 4.96354 56.0156 4.73438C56.5312 4.50521 57.0964 4.39062 57.7109 4.39062C58.6849 4.39062 59.4479 4.63542 60 5.125C60.5521 5.60938 60.8385 6.27865 60.8594 7.13281V11.0234C60.8594 11.7995 60.9583 12.4167 61.1562 12.875V13H59.6406ZM57.2422 11.8984C57.6953 11.8984 58.125 11.7812 58.5312 11.5469C58.9375 11.3125 59.2318 11.0078 59.4141 10.6328V8.89844H58.2812C56.5104 8.89844 55.625 9.41667 55.625 10.4531C55.625 10.9062 55.776 11.2604 56.0781 11.5156C56.3802 11.7708 56.7682 11.8984 57.2422 11.8984ZM68.5469 10.7578C68.5469 10.3672 68.3984 10.0651 68.1016 9.85156C67.8099 9.63281 67.2969 9.44531 66.5625 9.28906C65.8333 9.13281 65.2526 8.94531 64.8203 8.72656C64.3932 8.50781 64.0755 8.2474 63.8672 7.94531C63.6641 7.64323 63.5625 7.28385 63.5625 6.86719C63.5625 6.17448 63.8542 5.58854 64.4375 5.10938C65.026 4.63021 65.776 4.39062 66.6875 4.39062C67.6458 4.39062 68.4219 4.63802 69.0156 5.13281C69.6146 5.6276 69.9141 6.26042 69.9141 7.03125H68.4609C68.4609 6.63542 68.2917 6.29427 67.9531 6.00781C67.6198 5.72135 67.1979 5.57812 66.6875 5.57812C66.1615 5.57812 65.75 5.69271 65.4531 5.92188C65.1562 6.15104 65.0078 6.45052 65.0078 6.82031C65.0078 7.16927 65.1458 7.43229 65.4219 7.60938C65.6979 7.78646 66.1953 7.95573 66.9141 8.11719C67.638 8.27865 68.224 8.47135 68.6719 8.69531C69.1198 8.91927 69.4505 9.1901 69.6641 9.50781C69.8828 9.82031 69.9922 10.2031 69.9922 10.6562C69.9922 11.4115 69.6901 12.0182 69.0859 12.4766C68.4818 12.9297 67.6979 13.1562 66.7344 13.1562C66.0573 13.1562 65.4583 13.0365 64.9375 12.7969C64.4167 12.5573 64.0078 12.224 63.7109 11.7969C63.4193 11.3646 63.2734 10.8984 63.2734 10.3984H64.7188C64.7448 10.8828 64.9375 11.2682 65.2969 11.5547C65.6615 11.8359 66.1406 11.9766 66.7344 11.9766C67.2812 11.9766 67.7188 11.8672 68.0469 11.6484C68.3802 11.4245 68.5469 11.1276 68.5469 10.7578ZM73.8203 5.57031C74.4609 4.78385 75.2943 4.39062 76.3203 4.39062C78.1068 4.39062 79.0078 5.39844 79.0234 7.41406V13H77.5781V7.40625C77.5729 6.79688 77.4323 6.34635 77.1562 6.05469C76.8854 5.76302 76.4609 5.61719 75.8828 5.61719C75.4141 5.61719 75.0026 5.74219 74.6484 5.99219C74.2943 6.24219 74.0182 6.57031 73.8203 6.97656V13H72.375V1H73.8203V5.57031ZM91.375 13C91.2917 12.8333 91.224 12.5365 91.1719 12.1094C90.5 12.8073 89.6979 13.1562 88.7656 13.1562C87.9323 13.1562 87.2474 12.9219 86.7109 12.4531C86.1797 11.9792 85.9141 11.3802 85.9141 10.6562C85.9141 9.77604 86.2474 9.09375 86.9141 8.60938C87.5859 8.11979 88.5286 7.875 89.7422 7.875H91.1484V7.21094C91.1484 6.70573 90.9974 6.30469 90.6953 6.00781C90.3932 5.70573 89.9479 5.55469 89.3594 5.55469C88.8438 5.55469 88.4115 5.6849 88.0625 5.94531C87.7135 6.20573 87.5391 6.52083 87.5391 6.89062H86.0859C86.0859 6.46875 86.2344 6.0625 86.5312 5.67188C86.8333 5.27604 87.2396 4.96354 87.75 4.73438C88.2656 4.50521 88.8307 4.39062 89.4453 4.39062C90.4193 4.39062 91.1823 4.63542 91.7344 5.125C92.2865 5.60938 92.5729 6.27865 92.5938 7.13281V11.0234C92.5938 11.7995 92.6927 12.4167 92.8906 12.875V13H91.375ZM88.9766 11.8984C89.4297 11.8984 89.8594 11.7812 90.2656 11.5469C90.6719 11.3125 90.9661 11.0078 91.1484 10.6328V8.89844H90.0156C88.2448 8.89844 87.3594 9.41667 87.3594 10.4531C87.3594 10.9062 87.5104 11.2604 87.8125 11.5156C88.1146 11.7708 88.5026 11.8984 88.9766 11.8984ZM100.281 10.7578C100.281 10.3672 100.133 10.0651 99.8359 9.85156C99.5443 9.63281 99.0312 9.44531 98.2969 9.28906C97.5677 9.13281 96.987 8.94531 96.5547 8.72656C96.1276 8.50781 95.8099 8.2474 95.6016 7.94531C95.3984 7.64323 95.2969 7.28385 95.2969 6.86719C95.2969 6.17448 95.5885 5.58854 96.1719 5.10938C96.7604 4.63021 97.5104 4.39062 98.4219 4.39062C99.3802 4.39062 100.156 4.63802 100.75 5.13281C101.349 5.6276 101.648 6.26042 101.648 7.03125H100.195C100.195 6.63542 100.026 6.29427 99.6875 6.00781C99.3542 5.72135 98.9323 5.57812 98.4219 5.57812C97.8958 5.57812 97.4844 5.69271 97.1875 5.92188C96.8906 6.15104 96.7422 6.45052 96.7422 6.82031C96.7422 7.16927 96.8802 7.43229 97.1562 7.60938C97.4323 7.78646 97.9297 7.95573 98.6484 8.11719C99.3724 8.27865 99.9583 8.47135 100.406 8.69531C100.854 8.91927 101.185 9.1901 101.398 9.50781C101.617 9.82031 101.727 10.2031 101.727 10.6562C101.727 11.4115 101.424 12.0182 100.82 12.4766C100.216 12.9297 99.4323 13.1562 98.4688 13.1562C97.7917 13.1562 97.1927 13.0365 96.6719 12.7969C96.151 12.5573 95.7422 12.224 95.4453 11.7969C95.1536 11.3646 95.0078 10.8984 95.0078 10.3984H96.4531C96.4792 10.8828 96.6719 11.2682 97.0312 11.5547C97.3958 11.8359 97.875 11.9766 98.4688 11.9766C99.0156 11.9766 99.4531 11.8672 99.7812 11.6484C100.115 11.4245 100.281 11.1276 100.281 10.7578ZM103.727 8.69531C103.727 7.86719 103.888 7.1224 104.211 6.46094C104.539 5.79948 104.992 5.28906 105.57 4.92969C106.154 4.57031 106.818 4.39062 107.562 4.39062C108.714 4.39062 109.643 4.78906 110.352 5.58594C111.065 6.38281 111.422 7.44271 111.422 8.76562V8.86719C111.422 9.6901 111.263 10.4297 110.945 11.0859C110.633 11.737 110.182 12.2448 109.594 12.6094C109.01 12.974 108.339 13.1562 107.578 13.1562C106.432 13.1562 105.503 12.7578 104.789 11.9609C104.081 11.1641 103.727 10.1094 103.727 8.79688V8.69531ZM105.18 8.86719C105.18 9.80469 105.396 10.5573 105.828 11.125C106.266 11.6927 106.849 11.9766 107.578 11.9766C108.312 11.9766 108.896 11.6901 109.328 11.1172C109.76 10.5391 109.977 9.73177 109.977 8.69531C109.977 7.76823 109.755 7.01823 109.312 6.44531C108.875 5.86719 108.292 5.57812 107.562 5.57812C106.849 5.57812 106.273 5.86198 105.836 6.42969C105.398 6.9974 105.18 7.8099 105.18 8.86719ZM118.656 10.7578C118.656 10.3672 118.508 10.0651 118.211 9.85156C117.919 9.63281 117.406 9.44531 116.672 9.28906C115.943 9.13281 115.362 8.94531 114.93 8.72656C114.503 8.50781 114.185 8.2474 113.977 7.94531C113.773 7.64323 113.672 7.28385 113.672 6.86719C113.672 6.17448 113.964 5.58854 114.547 5.10938C115.135 4.63021 115.885 4.39062 116.797 4.39062C117.755 4.39062 118.531 4.63802 119.125 5.13281C119.724 5.6276 120.023 6.26042 120.023 7.03125H118.57C118.57 6.63542 118.401 6.29427 118.062 6.00781C117.729 5.72135 117.307 5.57812 116.797 5.57812C116.271 5.57812 115.859 5.69271 115.562 5.92188C115.266 6.15104 115.117 6.45052 115.117 6.82031C115.117 7.16927 115.255 7.43229 115.531 7.60938C115.807 7.78646 116.305 7.95573 117.023 8.11719C117.747 8.27865 118.333 8.47135 118.781 8.69531C119.229 8.91927 119.56 9.1901 119.773 9.50781C119.992 9.82031 120.102 10.2031 120.102 10.6562C120.102 11.4115 119.799 12.0182 119.195 12.4766C118.591 12.9297 117.807 13.1562 116.844 13.1562C116.167 13.1562 115.568 13.0365 115.047 12.7969C114.526 12.5573 114.117 12.224 113.82 11.7969C113.529 11.3646 113.383 10.8984 113.383 10.3984H114.828C114.854 10.8828 115.047 11.2682 115.406 11.5547C115.771 11.8359 116.25 11.9766 116.844 11.9766C117.391 11.9766 117.828 11.8672 118.156 11.6484C118.49 11.4245 118.656 11.1276 118.656 10.7578ZM124.055 13H122.609V1H124.055V13ZM132.094 13C132.01 12.8333 131.943 12.5365 131.891 12.1094C131.219 12.8073 130.417 13.1562 129.484 13.1562C128.651 13.1562 127.966 12.9219 127.43 12.4531C126.898 11.9792 126.633 11.3802 126.633 10.6562C126.633 9.77604 126.966 9.09375 127.633 8.60938C128.305 8.11979 129.247 7.875 130.461 7.875H131.867V7.21094C131.867 6.70573 131.716 6.30469 131.414 6.00781C131.112 5.70573 130.667 5.55469 130.078 5.55469C129.562 5.55469 129.13 5.6849 128.781 5.94531C128.432 6.20573 128.258 6.52083 128.258 6.89062H126.805C126.805 6.46875 126.953 6.0625 127.25 5.67188C127.552 5.27604 127.958 4.96354 128.469 4.73438C128.984 4.50521 129.549 4.39062 130.164 4.39062C131.138 4.39062 131.901 4.63542 132.453 5.125C133.005 5.60938 133.292 6.27865 133.312 7.13281V11.0234C133.312 11.7995 133.411 12.4167 133.609 12.875V13H132.094ZM129.695 11.8984C130.148 11.8984 130.578 11.7812 130.984 11.5469C131.391 11.3125 131.685 11.0078 131.867 10.6328V8.89844H130.734C128.964 8.89844 128.078 9.41667 128.078 10.4531C128.078 10.9062 128.229 11.2604 128.531 11.5156C128.833 11.7708 129.221 11.8984 129.695 11.8984ZM140.164 5.84375C139.945 5.80729 139.708 5.78906 139.453 5.78906C138.505 5.78906 137.862 6.19271 137.523 7V13H136.078V4.54688H137.484L137.508 5.52344C137.982 4.76823 138.654 4.39062 139.523 4.39062C139.805 4.39062 140.018 4.42708 140.164 4.5V5.84375ZM143.57 13H142.125V4.54688H143.57V13ZM142.008 2.30469C142.008 2.07031 142.078 1.8724 142.219 1.71094C142.365 1.54948 142.578 1.46875 142.859 1.46875C143.141 1.46875 143.354 1.54948 143.5 1.71094C143.646 1.8724 143.719 2.07031 143.719 2.30469C143.719 2.53906 143.646 2.73438 143.5 2.89062C143.354 3.04688 143.141 3.125 142.859 3.125C142.578 3.125 142.365 3.04688 142.219 2.89062C142.078 2.73438 142.008 2.53906 142.008 2.30469ZM146.047 8.70312C146.047 7.38542 146.352 6.33854 146.961 5.5625C147.57 4.78125 148.378 4.39062 149.383 4.39062C150.414 4.39062 151.219 4.75521 151.797 5.48438L151.867 4.54688H153.188V12.7969C153.188 13.8906 152.862 14.7526 152.211 15.3828C151.565 16.013 150.695 16.3281 149.602 16.3281C148.992 16.3281 148.396 16.1979 147.812 15.9375C147.229 15.6771 146.784 15.3203 146.477 14.8672L147.227 14C147.846 14.7656 148.604 15.1484 149.5 15.1484C150.203 15.1484 150.75 14.9505 151.141 14.5547C151.536 14.1589 151.734 13.6016 151.734 12.8828V12.1562C151.156 12.8229 150.367 13.1562 149.367 13.1562C148.378 13.1562 147.576 12.7578 146.961 11.9609C146.352 11.1641 146.047 10.0781 146.047 8.70312ZM147.5 8.86719C147.5 9.82031 147.695 10.5703 148.086 11.1172C148.477 11.6589 149.023 11.9297 149.727 11.9297C150.638 11.9297 151.307 11.5156 151.734 10.6875V6.82812C151.292 6.02083 150.628 5.61719 149.742 5.61719C149.039 5.61719 148.49 5.89062 148.094 6.4375C147.698 6.98438 147.5 7.79427 147.5 8.86719ZM161.094 13C161.01 12.8333 160.943 12.5365 160.891 12.1094C160.219 12.8073 159.417 13.1562 158.484 13.1562C157.651 13.1562 156.966 12.9219 156.43 12.4531C155.898 11.9792 155.633 11.3802 155.633 10.6562C155.633 9.77604 155.966 9.09375 156.633 8.60938C157.305 8.11979 158.247 7.875 159.461 7.875H160.867V7.21094C160.867 6.70573 160.716 6.30469 160.414 6.00781C160.112 5.70573 159.667 5.55469 159.078 5.55469C158.562 5.55469 158.13 5.6849 157.781 5.94531C157.432 6.20573 157.258 6.52083 157.258 6.89062H155.805C155.805 6.46875 155.953 6.0625 156.25 5.67188C156.552 5.27604 156.958 4.96354 157.469 4.73438C157.984 4.50521 158.549 4.39062 159.164 4.39062C160.138 4.39062 160.901 4.63542 161.453 5.125C162.005 5.60938 162.292 6.27865 162.312 7.13281V11.0234C162.312 11.7995 162.411 12.4167 162.609 12.875V13H161.094ZM158.695 11.8984C159.148 11.8984 159.578 11.7812 159.984 11.5469C160.391 11.3125 160.685 11.0078 160.867 10.6328V8.89844H159.734C157.964 8.89844 157.078 9.41667 157.078 10.4531C157.078 10.9062 157.229 11.2604 157.531 11.5156C157.833 11.7708 158.221 11.8984 158.695 11.8984ZM169.164 8.69531C169.164 7.86719 169.326 7.1224 169.648 6.46094C169.977 5.79948 170.43 5.28906 171.008 4.92969C171.591 4.57031 172.255 4.39062 173 4.39062C174.151 4.39062 175.081 4.78906 175.789 5.58594C176.503 6.38281 176.859 7.44271 176.859 8.76562V8.86719C176.859 9.6901 176.701 10.4297 176.383 11.0859C176.07 11.737 175.62 12.2448 175.031 12.6094C174.448 12.974 173.776 13.1562 173.016 13.1562C171.87 13.1562 170.94 12.7578 170.227 11.9609C169.518 11.1641 169.164 10.1094 169.164 8.79688V8.69531ZM170.617 8.86719C170.617 9.80469 170.833 10.5573 171.266 11.125C171.703 11.6927 172.286 11.9766 173.016 11.9766C173.75 11.9766 174.333 11.6901 174.766 11.1172C175.198 10.5391 175.414 9.73177 175.414 8.69531C175.414 7.76823 175.193 7.01823 174.75 6.44531C174.312 5.86719 173.729 5.57812 173 5.57812C172.286 5.57812 171.711 5.86198 171.273 6.42969C170.836 6.9974 170.617 7.8099 170.617 8.86719ZM180.742 13H179.297V4.54688H180.742V13ZM179.18 2.30469C179.18 2.07031 179.25 1.8724 179.391 1.71094C179.536 1.54948 179.75 1.46875 180.031 1.46875C180.312 1.46875 180.526 1.54948 180.672 1.71094C180.818 1.8724 180.891 2.07031 180.891 2.30469C180.891 2.53906 180.818 2.73438 180.672 2.89062C180.526 3.04688 180.312 3.125 180.031 3.125C179.75 3.125 179.536 3.04688 179.391 2.89062C179.25 2.73438 179.18 2.53906 179.18 2.30469ZM183.211 8.70312C183.211 7.40625 183.518 6.36458 184.133 5.57812C184.747 4.78646 185.552 4.39062 186.547 4.39062C187.536 4.39062 188.32 4.72917 188.898 5.40625V1H190.344V13H189.016L188.945 12.0938C188.367 12.8021 187.562 13.1562 186.531 13.1562C185.552 13.1562 184.753 12.7552 184.133 11.9531C183.518 11.151 183.211 10.1042 183.211 8.8125V8.70312ZM184.656 8.86719C184.656 9.82552 184.854 10.5755 185.25 11.1172C185.646 11.6589 186.193 11.9297 186.891 11.9297C187.807 11.9297 188.477 11.5182 188.898 10.6953V6.8125C188.466 6.01562 187.802 5.61719 186.906 5.61719C186.198 5.61719 185.646 5.89062 185.25 6.4375C184.854 6.98438 184.656 7.79427 184.656 8.86719ZM197.18 8.69531C197.18 7.86719 197.341 7.1224 197.664 6.46094C197.992 5.79948 198.445 5.28906 199.023 4.92969C199.607 4.57031 200.271 4.39062 201.016 4.39062C202.167 4.39062 203.096 4.78906 203.805 5.58594C204.518 6.38281 204.875 7.44271 204.875 8.76562V8.86719C204.875 9.6901 204.716 10.4297 204.398 11.0859C204.086 11.737 203.635 12.2448 203.047 12.6094C202.464 12.974 201.792 13.1562 201.031 13.1562C199.885 13.1562 198.956 12.7578 198.242 11.9609C197.534 11.1641 197.18 10.1094 197.18 8.79688V8.69531ZM198.633 8.86719C198.633 9.80469 198.849 10.5573 199.281 11.125C199.719 11.6927 200.302 11.9766 201.031 11.9766C201.766 11.9766 202.349 11.6901 202.781 11.1172C203.214 10.5391 203.43 9.73177 203.43 8.69531C203.43 7.76823 203.208 7.01823 202.766 6.44531C202.328 5.86719 201.745 5.57812 201.016 5.57812C200.302 5.57812 199.727 5.86198 199.289 6.42969C198.852 6.9974 198.633 7.8099 198.633 8.86719ZM207.141 0.851562L207.969 1.41406C207.484 2.07552 207.234 2.78906 207.219 3.55469V4.61719H205.781V3.71094C205.781 3.17969 205.906 2.65365 206.156 2.13281C206.411 1.61198 206.74 1.1849 207.141 0.851562ZM211.188 11.8203H216.133V13H209.422V11.9375L214.086 5.74219H209.492V4.54688H215.898V5.57031L211.188 11.8203ZM225.422 8.86719C225.422 10.1589 225.125 11.1979 224.531 11.9844C223.938 12.7656 223.141 13.1562 222.141 13.1562C221.073 13.1562 220.247 12.7786 219.664 12.0234L219.594 13H218.266V1H219.711V5.47656C220.294 4.7526 221.099 4.39062 222.125 4.39062C223.151 4.39062 223.956 4.77865 224.539 5.55469C225.128 6.33073 225.422 7.39323 225.422 8.74219V8.86719ZM223.977 8.70312C223.977 7.71875 223.786 6.95833 223.406 6.42188C223.026 5.88542 222.479 5.61719 221.766 5.61719C220.812 5.61719 220.128 6.0599 219.711 6.94531V10.6016C220.154 11.487 220.844 11.9297 221.781 11.9297C222.474 11.9297 223.013 11.6615 223.398 11.125C223.784 10.5885 223.977 9.78125 223.977 8.70312ZM231.258 13.1562C230.112 13.1562 229.18 12.7812 228.461 12.0312C227.742 11.276 227.383 10.2682 227.383 9.00781V8.74219C227.383 7.90365 227.542 7.15625 227.859 6.5C228.182 5.83854 228.63 5.32292 229.203 4.95312C229.781 4.57812 230.406 4.39062 231.078 4.39062C232.177 4.39062 233.031 4.7526 233.641 5.47656C234.25 6.20052 234.555 7.23698 234.555 8.58594V9.1875H228.828C228.849 10.0208 229.091 10.6953 229.555 11.2109C230.023 11.7214 230.617 11.9766 231.336 11.9766C231.846 11.9766 232.279 11.8724 232.633 11.6641C232.987 11.4557 233.297 11.1797 233.562 10.8359L234.445 11.5234C233.737 12.612 232.674 13.1562 231.258 13.1562ZM231.078 5.57812C230.495 5.57812 230.005 5.79167 229.609 6.21875C229.214 6.64062 228.969 7.23438 228.875 8H233.109V7.89062C233.068 7.15625 232.87 6.58854 232.516 6.1875C232.161 5.78125 231.682 5.57812 231.078 5.57812ZM239.094 9.08594L238.188 10.0312V13H236.742V1H238.188V8.25781L238.961 7.32812L241.594 4.54688H243.352L240.062 8.07812L243.734 13H242.039L239.094 9.08594ZM251.773 2.5V4.54688H253.352V5.66406H251.773V10.9062C251.773 11.2448 251.844 11.5 251.984 11.6719C252.125 11.8385 252.365 11.9219 252.703 11.9219C252.87 11.9219 253.099 11.8906 253.391 11.8281V13C253.01 13.1042 252.641 13.1562 252.281 13.1562C251.635 13.1562 251.148 12.9609 250.82 12.5703C250.492 12.1797 250.328 11.625 250.328 10.9062V5.66406H248.789V4.54688H250.328V2.5H251.773ZM257.117 13H255.672V4.54688H257.117V13ZM255.555 2.30469C255.555 2.07031 255.625 1.8724 255.766 1.71094C255.911 1.54948 256.125 1.46875 256.406 1.46875C256.688 1.46875 256.901 1.54948 257.047 1.71094C257.193 1.8724 257.266 2.07031 257.266 2.30469C257.266 2.53906 257.193 2.73438 257.047 2.89062C256.901 3.04688 256.688 3.125 256.406 3.125C256.125 3.125 255.911 3.04688 255.766 2.89062C255.625 2.73438 255.555 2.53906 255.555 2.30469ZM261.508 13H260.062V1H261.508V13ZM265.898 13H264.453V4.54688H265.898V13ZM264.336 2.30469C264.336 2.07031 264.406 1.8724 264.547 1.71094C264.693 1.54948 264.906 1.46875 265.188 1.46875C265.469 1.46875 265.682 1.54948 265.828 1.71094C265.974 1.8724 266.047 2.07031 266.047 2.30469C266.047 2.53906 265.974 2.73438 265.828 2.89062C265.682 3.04688 265.469 3.125 265.188 3.125C264.906 3.125 264.693 3.04688 264.547 2.89062C264.406 2.73438 264.336 2.53906 264.336 2.30469ZM268.367 8.70312C268.367 7.40625 268.674 6.36458 269.289 5.57812C269.904 4.78646 270.708 4.39062 271.703 4.39062C272.693 4.39062 273.477 4.72917 274.055 5.40625V1H275.5V13H274.172L274.102 12.0938C273.523 12.8021 272.719 13.1562 271.688 13.1562C270.708 13.1562 269.909 12.7552 269.289 11.9531C268.674 11.151 268.367 10.1042 268.367 8.8125V8.70312ZM269.812 8.86719C269.812 9.82552 270.01 10.5755 270.406 11.1172C270.802 11.6589 271.349 11.9297 272.047 11.9297C272.964 11.9297 273.633 11.5182 274.055 10.6953V6.8125C273.622 6.01562 272.958 5.61719 272.062 5.61719C271.354 5.61719 270.802 5.89062 270.406 6.4375C270.01 6.98438 269.812 7.79427 269.812 8.86719ZM283.469 13C283.385 12.8333 283.318 12.5365 283.266 12.1094C282.594 12.8073 281.792 13.1562 280.859 13.1562C280.026 13.1562 279.341 12.9219 278.805 12.4531C278.273 11.9792 278.008 11.3802 278.008 10.6562C278.008 9.77604 278.341 9.09375 279.008 8.60938C279.68 8.11979 280.622 7.875 281.836 7.875H283.242V7.21094C283.242 6.70573 283.091 6.30469 282.789 6.00781C282.487 5.70573 282.042 5.55469 281.453 5.55469C280.938 5.55469 280.505 5.6849 280.156 5.94531C279.807 6.20573 279.633 6.52083 279.633 6.89062H278.18C278.18 6.46875 278.328 6.0625 278.625 5.67188C278.927 5.27604 279.333 4.96354 279.844 4.73438C280.359 4.50521 280.924 4.39062 281.539 4.39062C282.513 4.39062 283.276 4.63542 283.828 5.125C284.38 5.60938 284.667 6.27865 284.688 7.13281V11.0234C284.688 11.7995 284.786 12.4167 284.984 12.875V13H283.469ZM281.07 11.8984C281.523 11.8984 281.953 11.7812 282.359 11.5469C282.766 11.3125 283.06 11.0078 283.242 10.6328V8.89844H282.109C280.339 8.89844 279.453 9.41667 279.453 10.4531C279.453 10.9062 279.604 11.2604 279.906 11.5156C280.208 11.7708 280.596 11.8984 281.07 11.8984ZM287.109 8.70312C287.109 7.38542 287.414 6.33854 288.023 5.5625C288.633 4.78125 289.44 4.39062 290.445 4.39062C291.477 4.39062 292.281 4.75521 292.859 5.48438L292.93 4.54688H294.25V12.7969C294.25 13.8906 293.924 14.7526 293.273 15.3828C292.628 16.013 291.758 16.3281 290.664 16.3281C290.055 16.3281 289.458 16.1979 288.875 15.9375C288.292 15.6771 287.846 15.3203 287.539 14.8672L288.289 14C288.909 14.7656 289.667 15.1484 290.562 15.1484C291.266 15.1484 291.812 14.9505 292.203 14.5547C292.599 14.1589 292.797 13.6016 292.797 12.8828V12.1562C292.219 12.8229 291.43 13.1562 290.43 13.1562C289.44 13.1562 288.638 12.7578 288.023 11.9609C287.414 11.1641 287.109 10.0781 287.109 8.70312ZM288.562 8.86719C288.562 9.82031 288.758 10.5703 289.148 11.1172C289.539 11.6589 290.086 11.9297 290.789 11.9297C291.701 11.9297 292.37 11.5156 292.797 10.6875V6.82812C292.354 6.02083 291.69 5.61719 290.805 5.61719C290.102 5.61719 289.552 5.89062 289.156 6.4375C288.76 6.98438 288.562 7.79427 288.562 8.86719ZM298.508 13H297.062V4.54688H298.508V13ZM296.945 2.30469C296.945 2.07031 297.016 1.8724 297.156 1.71094C297.302 1.54948 297.516 1.46875 297.797 1.46875C298.078 1.46875 298.292 1.54948 298.438 1.71094C298.583 1.8724 298.656 2.07031 298.656 2.30469C298.656 2.53906 298.583 2.73438 298.438 2.89062C298.292 3.04688 298.078 3.125 297.797 3.125C297.516 3.125 297.302 3.04688 297.156 2.89062C297.016 2.73438 296.945 2.53906 296.945 2.30469ZM307.367 13H305.922V4.54688H307.367V13ZM305.805 2.30469C305.805 2.07031 305.875 1.8724 306.016 1.71094C306.161 1.54948 306.375 1.46875 306.656 1.46875C306.938 1.46875 307.151 1.54948 307.297 1.71094C307.443 1.8724 307.516 2.07031 307.516 2.30469C307.516 2.53906 307.443 2.73438 307.297 2.89062C307.151 3.04688 306.938 3.125 306.656 3.125C306.375 3.125 306.161 3.04688 306.016 2.89062C305.875 2.73438 305.805 2.53906 305.805 2.30469ZM311.758 13H310.312V1H311.758V13ZM316.938 9.08594L316.031 10.0312V13H314.586V1H316.031V8.25781L316.805 7.32812L319.438 4.54688H321.195L317.906 8.07812L321.578 13H319.883L316.938 9.08594ZM331.164 13.1562C330.018 13.1562 329.086 12.7812 328.367 12.0312C327.648 11.276 327.289 10.2682 327.289 9.00781V8.74219C327.289 7.90365 327.448 7.15625 327.766 6.5C328.089 5.83854 328.536 5.32292 329.109 4.95312C329.688 4.57812 330.312 4.39062 330.984 4.39062C332.083 4.39062 332.938 4.7526 333.547 5.47656C334.156 6.20052 334.461 7.23698 334.461 8.58594V9.1875H328.734C328.755 10.0208 328.997 10.6953 329.461 11.2109C329.93 11.7214 330.523 11.9766 331.242 11.9766C331.753 11.9766 332.185 11.8724 332.539 11.6641C332.893 11.4557 333.203 11.1797 333.469 10.8359L334.352 11.5234C333.643 12.612 332.581 13.1562 331.164 13.1562ZM330.984 5.57812C330.401 5.57812 329.911 5.79167 329.516 6.21875C329.12 6.64062 328.875 7.23438 328.781 8H333.016V7.89062C332.974 7.15625 332.776 6.58854 332.422 6.1875C332.068 5.78125 331.589 5.57812 330.984 5.57812ZM338.008 4.54688L338.055 5.60938C338.701 4.79688 339.544 4.39062 340.586 4.39062C342.372 4.39062 343.273 5.39844 343.289 7.41406V13H341.844V7.40625C341.839 6.79688 341.698 6.34635 341.422 6.05469C341.151 5.76302 340.727 5.61719 340.148 5.61719C339.68 5.61719 339.268 5.74219 338.914 5.99219C338.56 6.24219 338.284 6.57031 338.086 6.97656V13H336.641V4.54688H338.008ZM345.625 8.70312C345.625 7.38542 345.93 6.33854 346.539 5.5625C347.148 4.78125 347.956 4.39062 348.961 4.39062C349.992 4.39062 350.797 4.75521 351.375 5.48438L351.445 4.54688H352.766V12.7969C352.766 13.8906 352.44 14.7526 351.789 15.3828C351.143 16.013 350.273 16.3281 349.18 16.3281C348.57 16.3281 347.974 16.1979 347.391 15.9375C346.807 15.6771 346.362 15.3203 346.055 14.8672L346.805 14C347.424 14.7656 348.182 15.1484 349.078 15.1484C349.781 15.1484 350.328 14.9505 350.719 14.5547C351.115 14.1589 351.312 13.6016 351.312 12.8828V12.1562C350.734 12.8229 349.945 13.1562 348.945 13.1562C347.956 13.1562 347.154 12.7578 346.539 11.9609C345.93 11.1641 345.625 10.0781 345.625 8.70312ZM347.078 8.86719C347.078 9.82031 347.273 10.5703 347.664 11.1172C348.055 11.6589 348.602 11.9297 349.305 11.9297C350.216 11.9297 350.885 11.5156 351.312 10.6875V6.82812C350.87 6.02083 350.206 5.61719 349.32 5.61719C348.617 5.61719 348.068 5.89062 347.672 6.4375C347.276 6.98438 347.078 7.79427 347.078 8.86719ZM1.45312 28.5469L1.49219 29.4844C2.11198 28.7552 2.94792 28.3906 4 28.3906C5.18229 28.3906 5.98698 28.8438 6.41406 29.75C6.69531 29.3438 7.0599 29.0156 7.50781 28.7656C7.96094 28.5156 8.49479 28.3906 9.10938 28.3906C10.9635 28.3906 11.9062 29.3724 11.9375 31.3359V37H10.4922V31.4219C10.4922 30.8177 10.3542 30.3672 10.0781 30.0703C9.80208 29.7682 9.33854 29.6172 8.6875 29.6172C8.15104 29.6172 7.70573 29.7786 7.35156 30.1016C6.9974 30.4193 6.79167 30.849 6.73438 31.3906V37H5.28125V31.4609C5.28125 30.2318 4.67969 29.6172 3.47656 29.6172C2.52865 29.6172 1.88021 30.0208 1.53125 30.8281V37H0.0859375V28.5469H1.45312ZM19.8438 36.1641C19.2812 36.8255 18.4557 37.1562 17.3672 37.1562C16.4661 37.1562 15.7786 36.8958 15.3047 36.375C14.8359 35.849 14.599 35.0729 14.5938 34.0469V28.5469H16.0391V34.0078C16.0391 35.2891 16.5599 35.9297 17.6016 35.9297C18.7057 35.9297 19.4401 35.5182 19.8047 34.6953V28.5469H21.25V37H19.875L19.8438 36.1641ZM26.3125 33.0859L25.4062 34.0312V37H23.9609V25H25.4062V32.2578L26.1797 31.3281L28.8125 28.5469H30.5703L27.2812 32.0781L30.9531 37H29.2578L26.3125 33.0859ZM37.7812 37C37.6979 36.8333 37.6302 36.5365 37.5781 36.1094C36.9062 36.8073 36.1042 37.1562 35.1719 37.1562C34.3385 37.1562 33.6536 36.9219 33.1172 36.4531C32.5859 35.9792 32.3203 35.3802 32.3203 34.6562C32.3203 33.776 32.6536 33.0938 33.3203 32.6094C33.9922 32.1198 34.9349 31.875 36.1484 31.875H37.5547V31.2109C37.5547 30.7057 37.4036 30.3047 37.1016 30.0078C36.7995 29.7057 36.3542 29.5547 35.7656 29.5547C35.25 29.5547 34.8177 29.6849 34.4688 29.9453C34.1198 30.2057 33.9453 30.5208 33.9453 30.8906H32.4922C32.4922 30.4688 32.6406 30.0625 32.9375 29.6719C33.2396 29.276 33.6458 28.9635 34.1562 28.7344C34.6719 28.5052 35.237 28.3906 35.8516 28.3906C36.8255 28.3906 37.5885 28.6354 38.1406 29.125C38.6927 29.6094 38.9792 30.2786 39 31.1328V35.0234C39 35.7995 39.099 36.4167 39.2969 36.875V37H37.7812ZM35.3828 35.8984C35.8359 35.8984 36.2656 35.7812 36.6719 35.5469C37.0781 35.3125 37.3724 35.0078 37.5547 34.6328V32.8984H36.4219C34.651 32.8984 33.7656 33.4167 33.7656 34.4531C33.7656 34.9062 33.9167 35.2604 34.2188 35.5156C34.5208 35.7708 34.9089 35.8984 35.3828 35.8984ZM43.125 28.5469L43.1641 29.4844C43.7839 28.7552 44.6198 28.3906 45.6719 28.3906C46.8542 28.3906 47.6589 28.8438 48.0859 29.75C48.3672 29.3438 48.7318 29.0156 49.1797 28.7656C49.6328 28.5156 50.1667 28.3906 50.7812 28.3906C52.6354 28.3906 53.5781 29.3724 53.6094 31.3359V37H52.1641V31.4219C52.1641 30.8177 52.026 30.3672 51.75 30.0703C51.474 29.7682 51.0104 29.6172 50.3594 29.6172C49.8229 29.6172 49.3776 29.7786 49.0234 30.1016C48.6693 30.4193 48.4635 30.849 48.4062 31.3906V37H46.9531V31.4609C46.9531 30.2318 46.3516 29.6172 45.1484 29.6172C44.2005 29.6172 43.5521 30.0208 43.2031 30.8281V37H41.7578V28.5469H43.125ZM57.6562 28.5469L57.6953 29.4844C58.3151 28.7552 59.151 28.3906 60.2031 28.3906C61.3854 28.3906 62.1901 28.8438 62.6172 29.75C62.8984 29.3438 63.263 29.0156 63.7109 28.7656C64.1641 28.5156 64.6979 28.3906 65.3125 28.3906C67.1667 28.3906 68.1094 29.3724 68.1406 31.3359V37H66.6953V31.4219C66.6953 30.8177 66.5573 30.3672 66.2812 30.0703C66.0052 29.7682 65.5417 29.6172 64.8906 29.6172C64.3542 29.6172 63.9089 29.7786 63.5547 30.1016C63.2005 30.4193 62.9948 30.849 62.9375 31.3906V37H61.4844V31.4609C61.4844 30.2318 60.8828 29.6172 59.6797 29.6172C58.7318 29.6172 58.0833 30.0208 57.7344 30.8281V37H56.2891V28.5469H57.6562ZM76.0469 37C75.9635 36.8333 75.8958 36.5365 75.8438 36.1094C75.1719 36.8073 74.3698 37.1562 73.4375 37.1562C72.6042 37.1562 71.9193 36.9219 71.3828 36.4531C70.8516 35.9792 70.5859 35.3802 70.5859 34.6562C70.5859 33.776 70.9193 33.0938 71.5859 32.6094C72.2578 32.1198 73.2005 31.875 74.4141 31.875H75.8203V31.2109C75.8203 30.7057 75.6693 30.3047 75.3672 30.0078C75.0651 29.7057 74.6198 29.5547 74.0312 29.5547C73.5156 29.5547 73.0833 29.6849 72.7344 29.9453C72.3854 30.2057 72.2109 30.5208 72.2109 30.8906H70.7578C70.7578 30.4688 70.9062 30.0625 71.2031 29.6719C71.5052 29.276 71.9115 28.9635 72.4219 28.7344C72.9375 28.5052 73.5026 28.3906 74.1172 28.3906C75.0911 28.3906 75.8542 28.6354 76.4062 29.125C76.9583 29.6094 77.2448 30.2786 77.2656 31.1328V35.0234C77.2656 35.7995 77.3646 36.4167 77.5625 36.875V37H76.0469ZM73.6484 35.8984C74.1016 35.8984 74.5312 35.7812 74.9375 35.5469C75.3438 35.3125 75.638 35.0078 75.8203 34.6328V32.8984H74.6875C72.9167 32.8984 72.0312 33.4167 72.0312 34.4531C72.0312 34.9062 72.1823 35.2604 72.4844 35.5156C72.7865 35.7708 73.1745 35.8984 73.6484 35.8984ZM81.6016 37H80.1562V25H81.6016V37ZM88.5391 32.7031C88.5391 31.375 88.8438 30.3255 89.4531 29.5547C90.0625 28.7786 90.8802 28.3906 91.9062 28.3906C92.9062 28.3906 93.6953 28.7266 94.2734 29.3984L94.3359 28.5469H95.6641V40.25H94.2188V36.2188C93.6354 36.8438 92.8594 37.1562 91.8906 37.1562C90.8698 37.1562 90.0547 36.7604 89.4453 35.9688C88.8411 35.1719 88.5391 34.1172 88.5391 32.8047V32.7031ZM89.9844 32.8672C89.9844 33.8359 90.1875 34.5964 90.5938 35.1484C91.0052 35.7005 91.5573 35.9766 92.25 35.9766C93.1094 35.9766 93.7656 35.5964 94.2188 34.8359V30.6953C93.7604 29.9505 93.1094 29.5781 92.2656 29.5781C91.5677 29.5781 91.013 29.8568 90.6016 30.4141C90.1901 30.9661 89.9844 31.7839 89.9844 32.8672ZM98.1016 32.6953C98.1016 31.8672 98.263 31.1224 98.5859 30.4609C98.9141 29.7995 99.3672 29.2891 99.9453 28.9297C100.529 28.5703 101.193 28.3906 101.938 28.3906C103.089 28.3906 104.018 28.7891 104.727 29.5859C105.44 30.3828 105.797 31.4427 105.797 32.7656V32.8672C105.797 33.6901 105.638 34.4297 105.32 35.0859C105.008 35.737 104.557 36.2448 103.969 36.6094C103.385 36.974 102.714 37.1562 101.953 37.1562C100.807 37.1562 99.8776 36.7578 99.1641 35.9609C98.4557 35.1641 98.1016 34.1094 98.1016 32.7969V32.6953ZM99.5547 32.8672C99.5547 33.8047 99.7708 34.5573 100.203 35.125C100.641 35.6927 101.224 35.9766 101.953 35.9766C102.688 35.9766 103.271 35.6901 103.703 35.1172C104.135 34.5391 104.352 33.7318 104.352 32.6953C104.352 31.7682 104.13 31.0182 103.688 30.4453C103.25 29.8672 102.667 29.5781 101.938 29.5781C101.224 29.5781 100.648 29.862 100.211 30.4297C99.7734 30.9974 99.5547 31.8099 99.5547 32.8672ZM108.062 24.8516L108.891 25.4141C108.406 26.0755 108.156 26.7891 108.141 27.5547V28.6172H106.703V27.7109C106.703 27.1797 106.828 26.6536 107.078 26.1328C107.333 25.612 107.661 25.1849 108.062 24.8516ZM112.32 37H110.875V25H112.32V37ZM116.711 37H115.266V25H116.711V37ZM124.75 37C124.667 36.8333 124.599 36.5365 124.547 36.1094C123.875 36.8073 123.073 37.1562 122.141 37.1562C121.307 37.1562 120.622 36.9219 120.086 36.4531C119.555 35.9792 119.289 35.3802 119.289 34.6562C119.289 33.776 119.622 33.0938 120.289 32.6094C120.961 32.1198 121.904 31.875 123.117 31.875H124.523V31.2109C124.523 30.7057 124.372 30.3047 124.07 30.0078C123.768 29.7057 123.323 29.5547 122.734 29.5547C122.219 29.5547 121.786 29.6849 121.438 29.9453C121.089 30.2057 120.914 30.5208 120.914 30.8906H119.461C119.461 30.4688 119.609 30.0625 119.906 29.6719C120.208 29.276 120.615 28.9635 121.125 28.7344C121.641 28.5052 122.206 28.3906 122.82 28.3906C123.794 28.3906 124.557 28.6354 125.109 29.125C125.661 29.6094 125.948 30.2786 125.969 31.1328V35.0234C125.969 35.7995 126.068 36.4167 126.266 36.875V37H124.75ZM122.352 35.8984C122.805 35.8984 123.234 35.7812 123.641 35.5469C124.047 35.3125 124.341 35.0078 124.523 34.6328V32.8984H123.391C121.62 32.8984 120.734 33.4167 120.734 34.4531C120.734 34.9062 120.885 35.2604 121.188 35.5156C121.49 35.7708 121.878 35.8984 122.352 35.8984ZM130.102 28.5469L130.148 29.6094C130.794 28.7969 131.638 28.3906 132.68 28.3906C134.466 28.3906 135.367 29.3984 135.383 31.4141V37H133.938V31.4062C133.932 30.7969 133.792 30.3464 133.516 30.0547C133.245 29.763 132.82 29.6172 132.242 29.6172C131.773 29.6172 131.362 29.7422 131.008 29.9922C130.654 30.2422 130.378 30.5703 130.18 30.9766V37H128.734V28.5469H130.102ZM139.422 28.5469L139.461 29.4844C140.081 28.7552 140.917 28.3906 141.969 28.3906C143.151 28.3906 143.956 28.8438 144.383 29.75C144.664 29.3438 145.029 29.0156 145.477 28.7656C145.93 28.5156 146.464 28.3906 147.078 28.3906C148.932 28.3906 149.875 29.3724 149.906 31.3359V37H148.461V31.4219C148.461 30.8177 148.323 30.3672 148.047 30.0703C147.771 29.7682 147.307 29.6172 146.656 29.6172C146.12 29.6172 145.674 29.7786 145.32 30.1016C144.966 30.4193 144.76 30.849 144.703 31.3906V37H143.25V31.4609C143.25 30.2318 142.648 29.6172 141.445 29.6172C140.497 29.6172 139.849 30.0208 139.5 30.8281V37H138.055V28.5469H139.422ZM157.812 37C157.729 36.8333 157.661 36.5365 157.609 36.1094C156.938 36.8073 156.135 37.1562 155.203 37.1562C154.37 37.1562 153.685 36.9219 153.148 36.4531C152.617 35.9792 152.352 35.3802 152.352 34.6562C152.352 33.776 152.685 33.0938 153.352 32.6094C154.023 32.1198 154.966 31.875 156.18 31.875H157.586V31.2109C157.586 30.7057 157.435 30.3047 157.133 30.0078C156.831 29.7057 156.385 29.5547 155.797 29.5547C155.281 29.5547 154.849 29.6849 154.5 29.9453C154.151 30.2057 153.977 30.5208 153.977 30.8906H152.523C152.523 30.4688 152.672 30.0625 152.969 29.6719C153.271 29.276 153.677 28.9635 154.188 28.7344C154.703 28.5052 155.268 28.3906 155.883 28.3906C156.857 28.3906 157.62 28.6354 158.172 29.125C158.724 29.6094 159.01 30.2786 159.031 31.1328V35.0234C159.031 35.7995 159.13 36.4167 159.328 36.875V37H157.812ZM155.414 35.8984C155.867 35.8984 156.297 35.7812 156.703 35.5469C157.109 35.3125 157.404 35.0078 157.586 34.6328V32.8984H156.453C154.682 32.8984 153.797 33.4167 153.797 34.4531C153.797 34.9062 153.948 35.2604 154.25 35.5156C154.552 35.7708 154.94 35.8984 155.414 35.8984ZM161.828 36.2422C161.828 35.9922 161.901 35.7839 162.047 35.6172C162.198 35.4505 162.422 35.3672 162.719 35.3672C163.016 35.3672 163.24 35.4505 163.391 35.6172C163.547 35.7839 163.625 35.9922 163.625 36.2422C163.625 36.4818 163.547 36.6823 163.391 36.8438C163.24 37.0052 163.016 37.0859 162.719 37.0859C162.422 37.0859 162.198 37.0052 162.047 36.8438C161.901 36.6823 161.828 36.4818 161.828 36.2422ZM174.102 31.7109L172.711 33.1562V37H171.211V25.625H172.711V31.25L177.766 25.625H179.578L175.102 30.6484L179.93 37H178.133L174.102 31.7109ZM183.086 37H181.641V28.5469H183.086V37ZM181.523 26.3047C181.523 26.0703 181.594 25.8724 181.734 25.7109C181.88 25.5495 182.094 25.4688 182.375 25.4688C182.656 25.4688 182.87 25.5495 183.016 25.7109C183.161 25.8724 183.234 26.0703 183.234 26.3047C183.234 26.5391 183.161 26.7344 183.016 26.8906C182.87 27.0469 182.656 27.125 182.375 27.125C182.094 27.125 181.88 27.0469 181.734 26.8906C181.594 26.7344 181.523 26.5391 181.523 26.3047ZM187.867 26.5V28.5469H189.445V29.6641H187.867V34.9062C187.867 35.2448 187.938 35.5 188.078 35.6719C188.219 35.8385 188.458 35.9219 188.797 35.9219C188.964 35.9219 189.193 35.8906 189.484 35.8281V37C189.104 37.1042 188.734 37.1562 188.375 37.1562C187.729 37.1562 187.242 36.9609 186.914 36.5703C186.586 36.1797 186.422 35.625 186.422 34.9062V29.6641H184.883V28.5469H186.422V26.5H187.867ZM191.102 32.6953C191.102 31.8672 191.263 31.1224 191.586 30.4609C191.914 29.7995 192.367 29.2891 192.945 28.9297C193.529 28.5703 194.193 28.3906 194.938 28.3906C196.089 28.3906 197.018 28.7891 197.727 29.5859C198.44 30.3828 198.797 31.4427 198.797 32.7656V32.8672C198.797 33.6901 198.638 34.4297 198.32 35.0859C198.008 35.737 197.557 36.2448 196.969 36.6094C196.385 36.974 195.714 37.1562 194.953 37.1562C193.807 37.1562 192.878 36.7578 192.164 35.9609C191.456 35.1641 191.102 34.1094 191.102 32.7969V32.6953ZM192.555 32.8672C192.555 33.8047 192.771 34.5573 193.203 35.125C193.641 35.6927 194.224 35.9766 194.953 35.9766C195.688 35.9766 196.271 35.6901 196.703 35.1172C197.135 34.5391 197.352 33.7318 197.352 32.6953C197.352 31.7682 197.13 31.0182 196.688 30.4453C196.25 29.8672 195.667 29.5781 194.938 29.5781C194.224 29.5781 193.648 29.862 193.211 30.4297C192.773 30.9974 192.555 31.8099 192.555 32.8672ZM208.266 32.8672C208.266 34.1589 207.969 35.1979 207.375 35.9844C206.781 36.7656 205.984 37.1562 204.984 37.1562C203.917 37.1562 203.091 36.7786 202.508 36.0234L202.438 37H201.109V25H202.555V29.4766C203.138 28.7526 203.943 28.3906 204.969 28.3906C205.995 28.3906 206.799 28.7786 207.383 29.5547C207.971 30.3307 208.266 31.3932 208.266 32.7422V32.8672ZM206.82 32.7031C206.82 31.7188 206.63 30.9583 206.25 30.4219C205.87 29.8854 205.323 29.6172 204.609 29.6172C203.656 29.6172 202.971 30.0599 202.555 30.9453V34.6016C202.997 35.487 203.688 35.9297 204.625 35.9297C205.318 35.9297 205.857 35.6615 206.242 35.125C206.628 34.5885 206.82 33.7812 206.82 32.7031ZM211.961 28.5469L212.008 29.6094C212.654 28.7969 213.497 28.3906 214.539 28.3906C216.326 28.3906 217.227 29.3984 217.242 31.4141V37H215.797V31.4062C215.792 30.7969 215.651 30.3464 215.375 30.0547C215.104 29.763 214.68 29.6172 214.102 29.6172C213.633 29.6172 213.221 29.7422 212.867 29.9922C212.513 30.2422 212.237 30.5703 212.039 30.9766V37H210.594V28.5469H211.961ZM221.492 37H220.047V28.5469H221.492V37ZM219.93 26.3047C219.93 26.0703 220 25.8724 220.141 25.7109C220.286 25.5495 220.5 25.4688 220.781 25.4688C221.062 25.4688 221.276 25.5495 221.422 25.7109C221.568 25.8724 221.641 26.0703 221.641 26.3047C221.641 26.5391 221.568 26.7344 221.422 26.8906C221.276 27.0469 221.062 27.125 220.781 27.125C220.5 27.125 220.286 27.0469 220.141 26.8906C220 26.7344 219.93 26.5391 219.93 26.3047ZM225.68 28.5469L225.727 29.6094C226.372 28.7969 227.216 28.3906 228.258 28.3906C230.044 28.3906 230.945 29.3984 230.961 31.4141V37H229.516V31.4062C229.51 30.7969 229.37 30.3464 229.094 30.0547C228.823 29.763 228.398 29.6172 227.82 29.6172C227.352 29.6172 226.94 29.7422 226.586 29.9922C226.232 30.2422 225.956 30.5703 225.758 30.9766V37H224.312V28.5469H225.68ZM233.297 32.7031C233.297 31.3854 233.602 30.3385 234.211 29.5625C234.82 28.7812 235.628 28.3906 236.633 28.3906C237.664 28.3906 238.469 28.7552 239.047 29.4844L239.117 28.5469H240.438V36.7969C240.438 37.8906 240.112 38.7526 239.461 39.3828C238.815 40.013 237.945 40.3281 236.852 40.3281C236.242 40.3281 235.646 40.1979 235.062 39.9375C234.479 39.6771 234.034 39.3203 233.727 38.8672L234.477 38C235.096 38.7656 235.854 39.1484 236.75 39.1484C237.453 39.1484 238 38.9505 238.391 38.5547C238.786 38.1589 238.984 37.6016 238.984 36.8828V36.1562C238.406 36.8229 237.617 37.1562 236.617 37.1562C235.628 37.1562 234.826 36.7578 234.211 35.9609C233.602 35.1641 233.297 34.0781 233.297 32.7031ZM234.75 32.8672C234.75 33.8203 234.945 34.5703 235.336 35.1172C235.727 35.6589 236.273 35.9297 236.977 35.9297C237.888 35.9297 238.557 35.5156 238.984 34.6875V30.8281C238.542 30.0208 237.878 29.6172 236.992 29.6172C236.289 29.6172 235.74 29.8906 235.344 30.4375C234.948 30.9844 234.75 31.7943 234.75 32.8672ZM249.039 29.5703C249.68 28.7839 250.513 28.3906 251.539 28.3906C253.326 28.3906 254.227 29.3984 254.242 31.4141V37H252.797V31.4062C252.792 30.7969 252.651 30.3464 252.375 30.0547C252.104 29.763 251.68 29.6172 251.102 29.6172C250.633 29.6172 250.221 29.7422 249.867 29.9922C249.513 30.2422 249.237 30.5703 249.039 30.9766V37H247.594V25H249.039V29.5703ZM262.125 37C262.042 36.8333 261.974 36.5365 261.922 36.1094C261.25 36.8073 260.448 37.1562 259.516 37.1562C258.682 37.1562 257.997 36.9219 257.461 36.4531C256.93 35.9792 256.664 35.3802 256.664 34.6562C256.664 33.776 256.997 33.0938 257.664 32.6094C258.336 32.1198 259.279 31.875 260.492 31.875H261.898V31.2109C261.898 30.7057 261.747 30.3047 261.445 30.0078C261.143 29.7057 260.698 29.5547 260.109 29.5547C259.594 29.5547 259.161 29.6849 258.812 29.9453C258.464 30.2057 258.289 30.5208 258.289 30.8906H256.836C256.836 30.4688 256.984 30.0625 257.281 29.6719C257.583 29.276 257.99 28.9635 258.5 28.7344C259.016 28.5052 259.581 28.3906 260.195 28.3906C261.169 28.3906 261.932 28.6354 262.484 29.125C263.036 29.6094 263.323 30.2786 263.344 31.1328V35.0234C263.344 35.7995 263.443 36.4167 263.641 36.875V37H262.125ZM259.727 35.8984C260.18 35.8984 260.609 35.7812 261.016 35.5469C261.422 35.3125 261.716 35.0078 261.898 34.6328V32.8984H260.766C258.995 32.8984 258.109 33.4167 258.109 34.4531C258.109 34.9062 258.26 35.2604 258.562 35.5156C258.865 35.7708 259.253 35.8984 259.727 35.8984ZM270.195 29.8438C269.977 29.8073 269.74 29.7891 269.484 29.7891C268.536 29.7891 267.893 30.1927 267.555 31V37H266.109V28.5469H267.516L267.539 29.5234C268.013 28.7682 268.685 28.3906 269.555 28.3906C269.836 28.3906 270.049 28.4271 270.195 28.5V29.8438ZM283.656 32.8672C283.656 34.1589 283.359 35.1979 282.766 35.9844C282.172 36.7656 281.375 37.1562 280.375 37.1562C279.307 37.1562 278.482 36.7786 277.898 36.0234L277.828 37H276.5V25H277.945V29.4766C278.529 28.7526 279.333 28.3906 280.359 28.3906C281.385 28.3906 282.19 28.7786 282.773 29.5547C283.362 30.3307 283.656 31.3932 283.656 32.7422V32.8672ZM282.211 32.7031C282.211 31.7188 282.021 30.9583 281.641 30.4219C281.26 29.8854 280.714 29.6172 280 29.6172C279.047 29.6172 278.362 30.0599 277.945 30.9453V34.6016C278.388 35.487 279.078 35.9297 280.016 35.9297C280.708 35.9297 281.247 35.6615 281.633 35.125C282.018 34.5885 282.211 33.7812 282.211 32.7031ZM287.555 37H286.109V28.5469H287.555V37ZM285.992 26.3047C285.992 26.0703 286.062 25.8724 286.203 25.7109C286.349 25.5495 286.562 25.4688 286.844 25.4688C287.125 25.4688 287.339 25.5495 287.484 25.7109C287.63 25.8724 287.703 26.0703 287.703 26.3047C287.703 26.5391 287.63 26.7344 287.484 26.8906C287.339 27.0469 287.125 27.125 286.844 27.125C286.562 27.125 286.349 27.0469 286.203 26.8906C286.062 26.7344 285.992 26.5391 285.992 26.3047ZM294.461 29.8438C294.242 29.8073 294.005 29.7891 293.75 29.7891C292.802 29.7891 292.159 30.1927 291.82 31V37H290.375V28.5469H291.781L291.805 29.5234C292.279 28.7682 292.951 28.3906 293.82 28.3906C294.102 28.3906 294.315 28.4271 294.461 28.5V29.8438ZM307.922 32.8672C307.922 34.1589 307.625 35.1979 307.031 35.9844C306.438 36.7656 305.641 37.1562 304.641 37.1562C303.573 37.1562 302.747 36.7786 302.164 36.0234L302.094 37H300.766V25H302.211V29.4766C302.794 28.7526 303.599 28.3906 304.625 28.3906C305.651 28.3906 306.456 28.7786 307.039 29.5547C307.628 30.3307 307.922 31.3932 307.922 32.7422V32.8672ZM306.477 32.7031C306.477 31.7188 306.286 30.9583 305.906 30.4219C305.526 29.8854 304.979 29.6172 304.266 29.6172C303.312 29.6172 302.628 30.0599 302.211 30.9453V34.6016C302.654 35.487 303.344 35.9297 304.281 35.9297C304.974 35.9297 305.513 35.6615 305.898 35.125C306.284 34.5885 306.477 33.7812 306.477 32.7031ZM309.867 32.6953C309.867 31.8672 310.029 31.1224 310.352 30.4609C310.68 29.7995 311.133 29.2891 311.711 28.9297C312.294 28.5703 312.958 28.3906 313.703 28.3906C314.854 28.3906 315.784 28.7891 316.492 29.5859C317.206 30.3828 317.562 31.4427 317.562 32.7656V32.8672C317.562 33.6901 317.404 34.4297 317.086 35.0859C316.773 35.737 316.323 36.2448 315.734 36.6094C315.151 36.974 314.479 37.1562 313.719 37.1562C312.573 37.1562 311.643 36.7578 310.93 35.9609C310.221 35.1641 309.867 34.1094 309.867 32.7969V32.6953ZM311.32 32.8672C311.32 33.8047 311.536 34.5573 311.969 35.125C312.406 35.6927 312.99 35.9766 313.719 35.9766C314.453 35.9766 315.036 35.6901 315.469 35.1172C315.901 34.5391 316.117 33.7318 316.117 32.6953C316.117 31.7682 315.896 31.0182 315.453 30.4453C315.016 29.8672 314.432 29.5781 313.703 29.5781C312.99 29.5781 312.414 29.862 311.977 30.4297C311.539 30.9974 311.32 31.8099 311.32 32.8672ZM319.828 24.8516L320.656 25.4141C320.172 26.0755 319.922 26.7891 319.906 27.5547V28.6172H318.469V27.7109C318.469 27.1797 318.594 26.6536 318.844 26.1328C319.099 25.612 319.427 25.1849 319.828 24.8516ZM324.086 37H322.641V25H324.086V37ZM328.477 37H327.031V28.5469H328.477V37ZM326.914 26.3047C326.914 26.0703 326.984 25.8724 327.125 25.7109C327.271 25.5495 327.484 25.4688 327.766 25.4688C328.047 25.4688 328.26 25.5495 328.406 25.7109C328.552 25.8724 328.625 26.0703 328.625 26.3047C328.625 26.5391 328.552 26.7344 328.406 26.8906C328.26 27.0469 328.047 27.125 327.766 27.125C327.484 27.125 327.271 27.0469 327.125 26.8906C326.984 26.7344 326.914 26.5391 326.914 26.3047ZM332.656 28.5469L332.695 29.4844C333.315 28.7552 334.151 28.3906 335.203 28.3906C336.385 28.3906 337.19 28.8438 337.617 29.75C337.898 29.3438 338.263 29.0156 338.711 28.7656C339.164 28.5156 339.698 28.3906 340.312 28.3906C342.167 28.3906 343.109 29.3724 343.141 31.3359V37H341.695V31.4219C341.695 30.8177 341.557 30.3672 341.281 30.0703C341.005 29.7682 340.542 29.6172 339.891 29.6172C339.354 29.6172 338.909 29.7786 338.555 30.1016C338.201 30.4193 337.995 30.849 337.938 31.3906V37H336.484V31.4609C336.484 30.2318 335.883 29.6172 334.68 29.6172C333.732 29.6172 333.083 30.0208 332.734 30.8281V37H331.289V28.5469H332.656ZM347.398 37H345.953V28.5469H347.398V37ZM345.836 26.3047C345.836 26.0703 345.906 25.8724 346.047 25.7109C346.193 25.5495 346.406 25.4688 346.688 25.4688C346.969 25.4688 347.182 25.5495 347.328 25.7109C347.474 25.8724 347.547 26.0703 347.547 26.3047C347.547 26.5391 347.474 26.7344 347.328 26.8906C347.182 27.0469 346.969 27.125 346.688 27.125C346.406 27.125 346.193 27.0469 346.047 26.8906C345.906 26.7344 345.836 26.5391 345.836 26.3047ZM5.3125 60.1641C4.75 60.8255 3.92448 61.1562 2.83594 61.1562C1.9349 61.1562 1.2474 60.8958 0.773438 60.375C0.304688 59.849 0.0677083 59.0729 0.0625 58.0469V52.5469H1.50781V58.0078C1.50781 59.2891 2.02865 59.9297 3.07031 59.9297C4.17448 59.9297 4.90885 59.5182 5.27344 58.6953V52.5469H6.71875V61H5.34375L5.3125 60.1641ZM12.8125 59.9766C13.3281 59.9766 13.7786 59.8203 14.1641 59.5078C14.5495 59.1953 14.763 58.8047 14.8047 58.3359H16.1719C16.1458 58.8203 15.9792 59.2812 15.6719 59.7188C15.3646 60.1562 14.9531 60.5052 14.4375 60.7656C13.9271 61.026 13.3854 61.1562 12.8125 61.1562C11.6615 61.1562 10.7448 60.7734 10.0625 60.0078C9.38542 59.237 9.04688 58.1849 9.04688 56.8516V56.6094C9.04688 55.7865 9.19792 55.0547 9.5 54.4141C9.80208 53.7734 10.2344 53.276 10.7969 52.9219C11.3646 52.5677 12.0339 52.3906 12.8047 52.3906C13.7526 52.3906 14.5391 52.6745 15.1641 53.2422C15.7943 53.8099 16.1302 54.5469 16.1719 55.4531H14.8047C14.763 54.9062 14.5547 54.4583 14.1797 54.1094C13.8099 53.7552 13.3516 53.5781 12.8047 53.5781C12.0703 53.5781 11.5 53.8438 11.0938 54.375C10.6927 54.901 10.4922 55.6641 10.4922 56.6641V56.9375C10.4922 57.9115 10.6927 58.6615 11.0938 59.1875C11.4948 59.7135 12.0677 59.9766 12.8125 59.9766ZM19.7422 53.5703C20.3828 52.7839 21.2161 52.3906 22.2422 52.3906C24.0286 52.3906 24.9297 53.3984 24.9453 55.4141V61H23.5V55.4062C23.4948 54.7969 23.3542 54.3464 23.0781 54.0547C22.8073 53.763 22.3828 53.6172 21.8047 53.6172C21.3359 53.6172 20.9245 53.7422 20.5703 53.9922C20.2161 54.2422 19.9401 54.5703 19.7422 54.9766V61H18.2969V49H19.7422V53.5703ZM32.8281 60.1641C32.2656 60.8255 31.4401 61.1562 30.3516 61.1562C29.4505 61.1562 28.763 60.8958 28.2891 60.375C27.8203 59.849 27.5833 59.0729 27.5781 58.0469V52.5469H29.0234V58.0078C29.0234 59.2891 29.5443 59.9297 30.5859 59.9297C31.6901 59.9297 32.4245 59.5182 32.7891 58.6953V52.5469H34.2344V61H32.8594L32.8281 60.1641ZM38.3047 52.5469L38.3516 53.6094C38.9974 52.7969 39.8411 52.3906 40.8828 52.3906C42.6693 52.3906 43.5703 53.3984 43.5859 55.4141V61H42.1406V55.4062C42.1354 54.7969 41.9948 54.3464 41.7188 54.0547C41.4479 53.763 41.0234 53.6172 40.4453 53.6172C39.9766 53.6172 39.5651 53.7422 39.2109 53.9922C38.8568 54.2422 38.5807 54.5703 38.3828 54.9766V61H36.9375V52.5469H38.3047ZM52.0938 52.5469L52.1328 53.4844C52.7526 52.7552 53.5885 52.3906 54.6406 52.3906C55.8229 52.3906 56.6276 52.8438 57.0547 53.75C57.3359 53.3438 57.7005 53.0156 58.1484 52.7656C58.6016 52.5156 59.1354 52.3906 59.75 52.3906C61.6042 52.3906 62.5469 53.3724 62.5781 55.3359V61H61.1328V55.4219C61.1328 54.8177 60.9948 54.3672 60.7188 54.0703C60.4427 53.7682 59.9792 53.6172 59.3281 53.6172C58.7917 53.6172 58.3464 53.7786 57.9922 54.1016C57.638 54.4193 57.4323 54.849 57.375 55.3906V61H55.9219V55.4609C55.9219 54.2318 55.3203 53.6172 54.1172 53.6172C53.1693 53.6172 52.5208 54.0208 52.1719 54.8281V61H50.7266V52.5469H52.0938ZM70.4844 61C70.401 60.8333 70.3333 60.5365 70.2812 60.1094C69.6094 60.8073 68.8073 61.1562 67.875 61.1562C67.0417 61.1562 66.3568 60.9219 65.8203 60.4531C65.2891 59.9792 65.0234 59.3802 65.0234 58.6562C65.0234 57.776 65.3568 57.0938 66.0234 56.6094C66.6953 56.1198 67.638 55.875 68.8516 55.875H70.2578V55.2109C70.2578 54.7057 70.1068 54.3047 69.8047 54.0078C69.5026 53.7057 69.0573 53.5547 68.4688 53.5547C67.9531 53.5547 67.5208 53.6849 67.1719 53.9453C66.8229 54.2057 66.6484 54.5208 66.6484 54.8906H65.1953C65.1953 54.4688 65.3438 54.0625 65.6406 53.6719C65.9427 53.276 66.349 52.9635 66.8594 52.7344C67.375 52.5052 67.9401 52.3906 68.5547 52.3906C69.5286 52.3906 70.2917 52.6354 70.8438 53.125C71.3958 53.6094 71.6823 54.2786 71.7031 55.1328V59.0234C71.7031 59.7995 71.8021 60.4167 72 60.875V61H70.4844ZM68.0859 59.8984C68.5391 59.8984 68.9688 59.7812 69.375 59.5469C69.7812 59.3125 70.0755 59.0078 70.2578 58.6328V56.8984H69.125C67.3542 56.8984 66.4688 57.4167 66.4688 58.4531C66.4688 58.9062 66.6198 59.2604 66.9219 59.5156C67.224 59.7708 67.612 59.8984 68.0859 59.8984ZM77.3047 55.6328L79.1797 52.5469H80.8672L78.1016 56.7266L80.9531 61H79.2812L77.3281 57.8359L75.375 61H73.6953L76.5469 56.7266L73.7812 52.5469H75.4531L77.3047 55.6328ZM87.8281 58.7578C87.8281 58.3672 87.6797 58.0651 87.3828 57.8516C87.0911 57.6328 86.5781 57.4453 85.8438 57.2891C85.1146 57.1328 84.5339 56.9453 84.1016 56.7266C83.6745 56.5078 83.3568 56.2474 83.1484 55.9453C82.9453 55.6432 82.8438 55.2839 82.8438 54.8672C82.8438 54.1745 83.1354 53.5885 83.7188 53.1094C84.3073 52.6302 85.0573 52.3906 85.9688 52.3906C86.9271 52.3906 87.7031 52.638 88.2969 53.1328C88.8958 53.6276 89.1953 54.2604 89.1953 55.0312H87.7422C87.7422 54.6354 87.5729 54.2943 87.2344 54.0078C86.901 53.7214 86.4792 53.5781 85.9688 53.5781C85.4427 53.5781 85.0312 53.6927 84.7344 53.9219C84.4375 54.151 84.2891 54.4505 84.2891 54.8203C84.2891 55.1693 84.4271 55.4323 84.7031 55.6094C84.9792 55.7865 85.4766 55.9557 86.1953 56.1172C86.9193 56.2786 87.5052 56.4714 87.9531 56.6953C88.401 56.9193 88.7318 57.1901 88.9453 57.5078C89.1641 57.8203 89.2734 58.2031 89.2734 58.6562C89.2734 59.4115 88.9714 60.0182 88.3672 60.4766C87.763 60.9297 86.9792 61.1562 86.0156 61.1562C85.3385 61.1562 84.7396 61.0365 84.2188 60.7969C83.6979 60.5573 83.2891 60.224 82.9922 59.7969C82.7005 59.3646 82.5547 58.8984 82.5547 58.3984H84C84.026 58.8828 84.2188 59.2682 84.5781 59.5547C84.9427 59.8359 85.4219 59.9766 86.0156 59.9766C86.5625 59.9766 87 59.8672 87.3281 59.6484C87.6615 59.4245 87.8281 59.1276 87.8281 58.7578ZM96.875 60.1641C96.3125 60.8255 95.487 61.1562 94.3984 61.1562C93.4974 61.1562 92.8099 60.8958 92.3359 60.375C91.8672 59.849 91.6302 59.0729 91.625 58.0469V52.5469H93.0703V58.0078C93.0703 59.2891 93.5911 59.9297 94.6328 59.9297C95.737 59.9297 96.4714 59.5182 96.8359 58.6953V52.5469H98.2812V61H96.9062L96.875 60.1641ZM105.906 58.7578C105.906 58.3672 105.758 58.0651 105.461 57.8516C105.169 57.6328 104.656 57.4453 103.922 57.2891C103.193 57.1328 102.612 56.9453 102.18 56.7266C101.753 56.5078 101.435 56.2474 101.227 55.9453C101.023 55.6432 100.922 55.2839 100.922 54.8672C100.922 54.1745 101.214 53.5885 101.797 53.1094C102.385 52.6302 103.135 52.3906 104.047 52.3906C105.005 52.3906 105.781 52.638 106.375 53.1328C106.974 53.6276 107.273 54.2604 107.273 55.0312H105.82C105.82 54.6354 105.651 54.2943 105.312 54.0078C104.979 53.7214 104.557 53.5781 104.047 53.5781C103.521 53.5781 103.109 53.6927 102.812 53.9219C102.516 54.151 102.367 54.4505 102.367 54.8203C102.367 55.1693 102.505 55.4323 102.781 55.6094C103.057 55.7865 103.555 55.9557 104.273 56.1172C104.997 56.2786 105.583 56.4714 106.031 56.6953C106.479 56.9193 106.81 57.1901 107.023 57.5078C107.242 57.8203 107.352 58.2031 107.352 58.6562C107.352 59.4115 107.049 60.0182 106.445 60.4766C105.841 60.9297 105.057 61.1562 104.094 61.1562C103.417 61.1562 102.818 61.0365 102.297 60.7969C101.776 60.5573 101.367 60.224 101.07 59.7969C100.779 59.3646 100.633 58.8984 100.633 58.3984H102.078C102.104 58.8828 102.297 59.2682 102.656 59.5547C103.021 59.8359 103.5 59.9766 104.094 59.9766C104.641 59.9766 105.078 59.8672 105.406 59.6484C105.74 59.4245 105.906 59.1276 105.906 58.7578ZM116.992 59.0391L119.086 52.5469H120.562L117.531 61H116.43L113.367 52.5469H114.844L116.992 59.0391ZM124.023 61H122.578V52.5469H124.023V61ZM122.461 50.3047C122.461 50.0703 122.531 49.8724 122.672 49.7109C122.818 49.5495 123.031 49.4688 123.312 49.4688C123.594 49.4688 123.807 49.5495 123.953 49.7109C124.099 49.8724 124.172 50.0703 124.172 50.3047C124.172 50.5391 124.099 50.7344 123.953 50.8906C123.807 51.0469 123.594 51.125 123.312 51.125C123.031 51.125 122.818 51.0469 122.672 50.8906C122.531 50.7344 122.461 50.5391 122.461 50.3047ZM126.492 56.7031C126.492 55.4062 126.799 54.3646 127.414 53.5781C128.029 52.7865 128.833 52.3906 129.828 52.3906C130.818 52.3906 131.602 52.7292 132.18 53.4062V49H133.625V61H132.297L132.227 60.0938C131.648 60.8021 130.844 61.1562 129.812 61.1562C128.833 61.1562 128.034 60.7552 127.414 59.9531C126.799 59.151 126.492 58.1042 126.492 56.8125V56.7031ZM127.938 56.8672C127.938 57.8255 128.135 58.5755 128.531 59.1172C128.927 59.6589 129.474 59.9297 130.172 59.9297C131.089 59.9297 131.758 59.5182 132.18 58.6953V54.8125C131.747 54.0156 131.083 53.6172 130.188 53.6172C129.479 53.6172 128.927 53.8906 128.531 54.4375C128.135 54.9844 127.938 55.7943 127.938 56.8672ZM139.883 61.1562C138.737 61.1562 137.805 60.7812 137.086 60.0312C136.367 59.276 136.008 58.2682 136.008 57.0078V56.7422C136.008 55.9036 136.167 55.1562 136.484 54.5C136.807 53.8385 137.255 53.3229 137.828 52.9531C138.406 52.5781 139.031 52.3906 139.703 52.3906C140.802 52.3906 141.656 52.7526 142.266 53.4766C142.875 54.2005 143.18 55.237 143.18 56.5859V57.1875H137.453C137.474 58.0208 137.716 58.6953 138.18 59.2109C138.648 59.7214 139.242 59.9766 139.961 59.9766C140.471 59.9766 140.904 59.8724 141.258 59.6641C141.612 59.4557 141.922 59.1797 142.188 58.8359L143.07 59.5234C142.362 60.612 141.299 61.1562 139.883 61.1562ZM139.703 53.5781C139.12 53.5781 138.63 53.7917 138.234 54.2188C137.839 54.6406 137.594 55.2344 137.5 56H141.734V55.8906C141.693 55.1562 141.495 54.5885 141.141 54.1875C140.786 53.7812 140.307 53.5781 139.703 53.5781ZM144.977 56.6953C144.977 55.8672 145.138 55.1224 145.461 54.4609C145.789 53.7995 146.242 53.2891 146.82 52.9297C147.404 52.5703 148.068 52.3906 148.812 52.3906C149.964 52.3906 150.893 52.7891 151.602 53.5859C152.315 54.3828 152.672 55.4427 152.672 56.7656V56.8672C152.672 57.6901 152.513 58.4297 152.195 59.0859C151.883 59.737 151.432 60.2448 150.844 60.6094C150.26 60.974 149.589 61.1562 148.828 61.1562C147.682 61.1562 146.753 60.7578 146.039 59.9609C145.331 59.1641 144.977 58.1094 144.977 56.7969V56.6953ZM146.43 56.8672C146.43 57.8047 146.646 58.5573 147.078 59.125C147.516 59.6927 148.099 59.9766 148.828 59.9766C149.562 59.9766 150.146 59.6901 150.578 59.1172C151.01 58.5391 151.227 57.7318 151.227 56.6953C151.227 55.7682 151.005 55.0182 150.562 54.4453C150.125 53.8672 149.542 53.5781 148.812 53.5781C148.099 53.5781 147.523 53.862 147.086 54.4297C146.648 54.9974 146.43 55.8099 146.43 56.8672ZM159.102 56.7031C159.102 55.4062 159.409 54.3646 160.023 53.5781C160.638 52.7865 161.443 52.3906 162.438 52.3906C163.427 52.3906 164.211 52.7292 164.789 53.4062V49H166.234V61H164.906L164.836 60.0938C164.258 60.8021 163.453 61.1562 162.422 61.1562C161.443 61.1562 160.643 60.7552 160.023 59.9531C159.409 59.151 159.102 58.1042 159.102 56.8125V56.7031ZM160.547 56.8672C160.547 57.8255 160.745 58.5755 161.141 59.1172C161.536 59.6589 162.083 59.9297 162.781 59.9297C163.698 59.9297 164.367 59.5182 164.789 58.6953V54.8125C164.357 54.0156 163.693 53.6172 162.797 53.6172C162.089 53.6172 161.536 53.8906 161.141 54.4375C160.745 54.9844 160.547 55.7943 160.547 56.8672ZM174.203 61C174.12 60.8333 174.052 60.5365 174 60.1094C173.328 60.8073 172.526 61.1562 171.594 61.1562C170.76 61.1562 170.076 60.9219 169.539 60.4531C169.008 59.9792 168.742 59.3802 168.742 58.6562C168.742 57.776 169.076 57.0938 169.742 56.6094C170.414 56.1198 171.357 55.875 172.57 55.875H173.977V55.2109C173.977 54.7057 173.826 54.3047 173.523 54.0078C173.221 53.7057 172.776 53.5547 172.188 53.5547C171.672 53.5547 171.24 53.6849 170.891 53.9453C170.542 54.2057 170.367 54.5208 170.367 54.8906H168.914C168.914 54.4688 169.062 54.0625 169.359 53.6719C169.661 53.276 170.068 52.9635 170.578 52.7344C171.094 52.5052 171.659 52.3906 172.273 52.3906C173.247 52.3906 174.01 52.6354 174.562 53.125C175.115 53.6094 175.401 54.2786 175.422 55.1328V59.0234C175.422 59.7995 175.521 60.4167 175.719 60.875V61H174.203ZM171.805 59.8984C172.258 59.8984 172.688 59.7812 173.094 59.5469C173.5 59.3125 173.794 59.0078 173.977 58.6328V56.8984H172.844C171.073 56.8984 170.188 57.4167 170.188 58.4531C170.188 58.9062 170.339 59.2604 170.641 59.5156C170.943 59.7708 171.331 59.8984 171.805 59.8984ZM182.273 53.8438C182.055 53.8073 181.818 53.7891 181.562 53.7891C180.615 53.7891 179.971 54.1927 179.633 55V61H178.188V52.5469H179.594L179.617 53.5234C180.091 52.7682 180.763 52.3906 181.633 52.3906C181.914 52.3906 182.128 52.4271 182.273 52.5V53.8438ZM189.031 58.7578C189.031 58.3672 188.883 58.0651 188.586 57.8516C188.294 57.6328 187.781 57.4453 187.047 57.2891C186.318 57.1328 185.737 56.9453 185.305 56.7266C184.878 56.5078 184.56 56.2474 184.352 55.9453C184.148 55.6432 184.047 55.2839 184.047 54.8672C184.047 54.1745 184.339 53.5885 184.922 53.1094C185.51 52.6302 186.26 52.3906 187.172 52.3906C188.13 52.3906 188.906 52.638 189.5 53.1328C190.099 53.6276 190.398 54.2604 190.398 55.0312H188.945C188.945 54.6354 188.776 54.2943 188.438 54.0078C188.104 53.7214 187.682 53.5781 187.172 53.5781C186.646 53.5781 186.234 53.6927 185.938 53.9219C185.641 54.151 185.492 54.4505 185.492 54.8203C185.492 55.1693 185.63 55.4323 185.906 55.6094C186.182 55.7865 186.68 55.9557 187.398 56.1172C188.122 56.2786 188.708 56.4714 189.156 56.6953C189.604 56.9193 189.935 57.1901 190.148 57.5078C190.367 57.8203 190.477 58.2031 190.477 58.6562C190.477 59.4115 190.174 60.0182 189.57 60.4766C188.966 60.9297 188.182 61.1562 187.219 61.1562C186.542 61.1562 185.943 61.0365 185.422 60.7969C184.901 60.5573 184.492 60.224 184.195 59.7969C183.904 59.3646 183.758 58.8984 183.758 58.3984H185.203C185.229 58.8828 185.422 59.2682 185.781 59.5547C186.146 59.8359 186.625 59.9766 187.219 59.9766C187.766 59.9766 188.203 59.8672 188.531 59.6484C188.865 59.4245 189.031 59.1276 189.031 58.7578ZM194.43 61H192.984V49H194.43V61ZM202.469 61C202.385 60.8333 202.318 60.5365 202.266 60.1094C201.594 60.8073 200.792 61.1562 199.859 61.1562C199.026 61.1562 198.341 60.9219 197.805 60.4531C197.273 59.9792 197.008 59.3802 197.008 58.6562C197.008 57.776 197.341 57.0938 198.008 56.6094C198.68 56.1198 199.622 55.875 200.836 55.875H202.242V55.2109C202.242 54.7057 202.091 54.3047 201.789 54.0078C201.487 53.7057 201.042 53.5547 200.453 53.5547C199.938 53.5547 199.505 53.6849 199.156 53.9453C198.807 54.2057 198.633 54.5208 198.633 54.8906H197.18C197.18 54.4688 197.328 54.0625 197.625 53.6719C197.927 53.276 198.333 52.9635 198.844 52.7344C199.359 52.5052 199.924 52.3906 200.539 52.3906C201.513 52.3906 202.276 52.6354 202.828 53.125C203.38 53.6094 203.667 54.2786 203.688 55.1328V59.0234C203.688 59.7995 203.786 60.4167 203.984 60.875V61H202.469ZM200.07 59.8984C200.523 59.8984 200.953 59.7812 201.359 59.5469C201.766 59.3125 202.06 59.0078 202.242 58.6328V56.8984H201.109C199.339 56.8984 198.453 57.4167 198.453 58.4531C198.453 58.9062 198.604 59.2604 198.906 59.5156C199.208 59.7708 199.596 59.8984 200.07 59.8984ZM210.539 53.8438C210.32 53.8073 210.083 53.7891 209.828 53.7891C208.88 53.7891 208.237 54.1927 207.898 55V61H206.453V52.5469H207.859L207.883 53.5234C208.357 52.7682 209.029 52.3906 209.898 52.3906C210.18 52.3906 210.393 52.4271 210.539 52.5V53.8438ZM219.609 58.8828L221.578 52.5469H223.125L219.727 62.3047C219.201 63.7109 218.365 64.4141 217.219 64.4141L216.945 64.3906L216.406 64.2891V63.1172L216.797 63.1484C217.286 63.1484 217.667 63.0495 217.938 62.8516C218.214 62.6536 218.44 62.2917 218.617 61.7656L218.938 60.9062L215.922 52.5469H217.5L219.609 58.8828ZM224.414 56.6953C224.414 55.8672 224.576 55.1224 224.898 54.4609C225.227 53.7995 225.68 53.2891 226.258 52.9297C226.841 52.5703 227.505 52.3906 228.25 52.3906C229.401 52.3906 230.331 52.7891 231.039 53.5859C231.753 54.3828 232.109 55.4427 232.109 56.7656V56.8672C232.109 57.6901 231.951 58.4297 231.633 59.0859C231.32 59.737 230.87 60.2448 230.281 60.6094C229.698 60.974 229.026 61.1562 228.266 61.1562C227.12 61.1562 226.19 60.7578 225.477 59.9609C224.768 59.1641 224.414 58.1094 224.414 56.7969V56.6953ZM225.867 56.8672C225.867 57.8047 226.083 58.5573 226.516 59.125C226.953 59.6927 227.536 59.9766 228.266 59.9766C229 59.9766 229.583 59.6901 230.016 59.1172C230.448 58.5391 230.664 57.7318 230.664 56.6953C230.664 55.7682 230.443 55.0182 230 54.4453C229.562 53.8672 228.979 53.5781 228.25 53.5781C227.536 53.5781 226.961 53.862 226.523 54.4297C226.086 54.9974 225.867 55.8099 225.867 56.8672ZM235.656 59.8203H240.602V61H233.891V59.9375L238.555 53.7422H233.961V52.5469H240.367V53.5703L235.656 59.8203ZM244.305 61H242.859V52.5469H244.305V61ZM242.742 50.3047C242.742 50.0703 242.812 49.8724 242.953 49.7109C243.099 49.5495 243.312 49.4688 243.594 49.4688C243.875 49.4688 244.089 49.5495 244.234 49.7109C244.38 49.8724 244.453 50.0703 244.453 50.3047C244.453 50.5391 244.38 50.7344 244.234 50.8906C244.089 51.0469 243.875 51.125 243.594 51.125C243.312 51.125 243.099 51.0469 242.953 50.8906C242.812 50.7344 242.742 50.5391 242.742 50.3047ZM248.695 61H247.25V49H248.695V61ZM251.172 56.7031C251.172 55.3854 251.477 54.3385 252.086 53.5625C252.695 52.7812 253.503 52.3906 254.508 52.3906C255.539 52.3906 256.344 52.7552 256.922 53.4844L256.992 52.5469H258.312V60.7969C258.312 61.8906 257.987 62.7526 257.336 63.3828C256.69 64.013 255.82 64.3281 254.727 64.3281C254.117 64.3281 253.521 64.1979 252.938 63.9375C252.354 63.6771 251.909 63.3203 251.602 62.8672L252.352 62C252.971 62.7656 253.729 63.1484 254.625 63.1484C255.328 63.1484 255.875 62.9505 256.266 62.5547C256.661 62.1589 256.859 61.6016 256.859 60.8828V60.1562C256.281 60.8229 255.492 61.1562 254.492 61.1562C253.503 61.1562 252.701 60.7578 252.086 59.9609C251.477 59.1641 251.172 58.0781 251.172 56.7031ZM252.625 56.8672C252.625 57.8203 252.82 58.5703 253.211 59.1172C253.602 59.6589 254.148 59.9297 254.852 59.9297C255.763 59.9297 256.432 59.5156 256.859 58.6875V54.8281C256.417 54.0208 255.753 53.6172 254.867 53.6172C254.164 53.6172 253.615 53.8906 253.219 54.4375C252.823 54.9844 252.625 55.7943 252.625 56.8672ZM266.219 61C266.135 60.8333 266.068 60.5365 266.016 60.1094C265.344 60.8073 264.542 61.1562 263.609 61.1562C262.776 61.1562 262.091 60.9219 261.555 60.4531C261.023 59.9792 260.758 59.3802 260.758 58.6562C260.758 57.776 261.091 57.0938 261.758 56.6094C262.43 56.1198 263.372 55.875 264.586 55.875H265.992V55.2109C265.992 54.7057 265.841 54.3047 265.539 54.0078C265.237 53.7057 264.792 53.5547 264.203 53.5547C263.688 53.5547 263.255 53.6849 262.906 53.9453C262.557 54.2057 262.383 54.5208 262.383 54.8906H260.93C260.93 54.4688 261.078 54.0625 261.375 53.6719C261.677 53.276 262.083 52.9635 262.594 52.7344C263.109 52.5052 263.674 52.3906 264.289 52.3906C265.263 52.3906 266.026 52.6354 266.578 53.125C267.13 53.6094 267.417 54.2786 267.438 55.1328V59.0234C267.438 59.7995 267.536 60.4167 267.734 60.875V61H266.219ZM263.82 59.8984C264.273 59.8984 264.703 59.7812 265.109 59.5469C265.516 59.3125 265.81 59.0078 265.992 58.6328V56.8984H264.859C263.089 56.8984 262.203 57.4167 262.203 58.4531C262.203 58.9062 262.354 59.2604 262.656 59.5156C262.958 59.7708 263.346 59.8984 263.82 59.8984ZM271.57 52.5469L271.617 53.6094C272.263 52.7969 273.107 52.3906 274.148 52.3906C275.935 52.3906 276.836 53.3984 276.852 55.4141V61H275.406V55.4062C275.401 54.7969 275.26 54.3464 274.984 54.0547C274.714 53.763 274.289 53.6172 273.711 53.6172C273.242 53.6172 272.831 53.7422 272.477 53.9922C272.122 54.2422 271.846 54.5703 271.648 54.9766V61H270.203V52.5469H271.57ZM291.156 56.8672C291.156 58.1589 290.859 59.1979 290.266 59.9844C289.672 60.7656 288.875 61.1562 287.875 61.1562C286.807 61.1562 285.982 60.7786 285.398 60.0234L285.328 61H284V49H285.445V53.4766C286.029 52.7526 286.833 52.3906 287.859 52.3906C288.885 52.3906 289.69 52.7786 290.273 53.5547C290.862 54.3307 291.156 55.3932 291.156 56.7422V56.8672ZM289.711 56.7031C289.711 55.7188 289.521 54.9583 289.141 54.4219C288.76 53.8854 288.214 53.6172 287.5 53.6172C286.547 53.6172 285.862 54.0599 285.445 54.9453V58.6016C285.888 59.487 286.578 59.9297 287.516 59.9297C288.208 59.9297 288.747 59.6615 289.133 59.125C289.518 58.5885 289.711 57.7812 289.711 56.7031ZM293.102 56.6953C293.102 55.8672 293.263 55.1224 293.586 54.4609C293.914 53.7995 294.367 53.2891 294.945 52.9297C295.529 52.5703 296.193 52.3906 296.938 52.3906C298.089 52.3906 299.018 52.7891 299.727 53.5859C300.44 54.3828 300.797 55.4427 300.797 56.7656V56.8672C300.797 57.6901 300.638 58.4297 300.32 59.0859C300.008 59.737 299.557 60.2448 298.969 60.6094C298.385 60.974 297.714 61.1562 296.953 61.1562C295.807 61.1562 294.878 60.7578 294.164 59.9609C293.456 59.1641 293.102 58.1094 293.102 56.7969V56.6953ZM294.555 56.8672C294.555 57.8047 294.771 58.5573 295.203 59.125C295.641 59.6927 296.224 59.9766 296.953 59.9766C297.688 59.9766 298.271 59.6901 298.703 59.1172C299.135 58.5391 299.352 57.7318 299.352 56.6953C299.352 55.7682 299.13 55.0182 298.688 54.4453C298.25 53.8672 297.667 53.5781 296.938 53.5781C296.224 53.5781 295.648 53.862 295.211 54.4297C294.773 54.9974 294.555 55.8099 294.555 56.8672ZM303.062 48.8516L303.891 49.4141C303.406 50.0755 303.156 50.7891 303.141 51.5547V52.6172H301.703V51.7109C301.703 51.1797 301.828 50.6536 302.078 50.1328C302.333 49.612 302.661 49.1849 303.062 48.8516ZM307.32 61H305.875V49H307.32V61ZM311.711 61H310.266V52.5469H311.711V61ZM310.148 50.3047C310.148 50.0703 310.219 49.8724 310.359 49.7109C310.505 49.5495 310.719 49.4688 311 49.4688C311.281 49.4688 311.495 49.5495 311.641 49.7109C311.786 49.8724 311.859 50.0703 311.859 50.3047C311.859 50.5391 311.786 50.7344 311.641 50.8906C311.495 51.0469 311.281 51.125 311 51.125C310.719 51.125 310.505 51.0469 310.359 50.8906C310.219 50.7344 310.148 50.5391 310.148 50.3047ZM321.688 56.8672C321.688 58.1589 321.391 59.1979 320.797 59.9844C320.203 60.7656 319.406 61.1562 318.406 61.1562C317.339 61.1562 316.513 60.7786 315.93 60.0234L315.859 61H314.531V49H315.977V53.4766C316.56 52.7526 317.365 52.3906 318.391 52.3906C319.417 52.3906 320.221 52.7786 320.805 53.5547C321.393 54.3307 321.688 55.3932 321.688 56.7422V56.8672ZM320.242 56.7031C320.242 55.7188 320.052 54.9583 319.672 54.4219C319.292 53.8854 318.745 53.6172 318.031 53.6172C317.078 53.6172 316.393 54.0599 315.977 54.9453V58.6016C316.419 59.487 317.109 59.9297 318.047 59.9297C318.74 59.9297 319.279 59.6615 319.664 59.125C320.049 58.5885 320.242 57.7812 320.242 56.7031ZM323.969 63.2656L323.148 62.7031C323.638 62.0208 323.893 61.3177 323.914 60.5938V59.2891H325.328V60.4219C325.328 60.9479 325.198 61.474 324.938 62C324.682 62.526 324.359 62.9479 323.969 63.2656ZM337.344 60.1641C336.781 60.8255 335.956 61.1562 334.867 61.1562C333.966 61.1562 333.279 60.8958 332.805 60.375C332.336 59.849 332.099 59.0729 332.094 58.0469V52.5469H333.539V58.0078C333.539 59.2891 334.06 59.9297 335.102 59.9297C336.206 59.9297 336.94 59.5182 337.305 58.6953V52.5469H338.75V61H337.375L337.344 60.1641ZM343.023 61H341.578V49H343.023V61ZM351.062 61C350.979 60.8333 350.911 60.5365 350.859 60.1094C350.188 60.8073 349.385 61.1562 348.453 61.1562C347.62 61.1562 346.935 60.9219 346.398 60.4531C345.867 59.9792 345.602 59.3802 345.602 58.6562C345.602 57.776 345.935 57.0938 346.602 56.6094C347.273 56.1198 348.216 55.875 349.43 55.875H350.836V55.2109C350.836 54.7057 350.685 54.3047 350.383 54.0078C350.081 53.7057 349.635 53.5547 349.047 53.5547C348.531 53.5547 348.099 53.6849 347.75 53.9453C347.401 54.2057 347.227 54.5208 347.227 54.8906H345.773C345.773 54.4688 345.922 54.0625 346.219 53.6719C346.521 53.276 346.927 52.9635 347.438 52.7344C347.953 52.5052 348.518 52.3906 349.133 52.3906C350.107 52.3906 350.87 52.6354 351.422 53.125C351.974 53.6094 352.26 54.2786 352.281 55.1328V59.0234C352.281 59.7995 352.38 60.4167 352.578 60.875V61H351.062ZM348.664 59.8984C349.117 59.8984 349.547 59.7812 349.953 59.5469C350.359 59.3125 350.654 59.0078 350.836 58.6328V56.8984H349.703C347.932 56.8984 347.047 57.4167 347.047 58.4531C347.047 58.9062 347.198 59.2604 347.5 59.5156C347.802 59.7708 348.19 59.8984 348.664 59.8984ZM359.133 53.8438C358.914 53.8073 358.677 53.7891 358.422 53.7891C357.474 53.7891 356.831 54.1927 356.492 55V61H355.047V52.5469H356.453L356.477 53.5234C356.951 52.7682 357.622 52.3906 358.492 52.3906C358.773 52.3906 358.987 52.4271 359.133 52.5V53.8438ZM360.469 56.7031C360.469 55.3854 360.773 54.3385 361.383 53.5625C361.992 52.7812 362.799 52.3906 363.805 52.3906C364.836 52.3906 365.641 52.7552 366.219 53.4844L366.289 52.5469H367.609V60.7969C367.609 61.8906 367.284 62.7526 366.633 63.3828C365.987 64.013 365.117 64.3281 364.023 64.3281C363.414 64.3281 362.818 64.1979 362.234 63.9375C361.651 63.6771 361.206 63.3203 360.898 62.8672L361.648 62C362.268 62.7656 363.026 63.1484 363.922 63.1484C364.625 63.1484 365.172 62.9505 365.562 62.5547C365.958 62.1589 366.156 61.6016 366.156 60.8828V60.1562C365.578 60.8229 364.789 61.1562 363.789 61.1562C362.799 61.1562 361.997 60.7578 361.383 59.9609C360.773 59.1641 360.469 58.0781 360.469 56.7031ZM361.922 56.8672C361.922 57.8203 362.117 58.5703 362.508 59.1172C362.898 59.6589 363.445 59.9297 364.148 59.9297C365.06 59.9297 365.729 59.5156 366.156 58.6875V54.8281C365.714 54.0208 365.049 53.6172 364.164 53.6172C363.461 53.6172 362.911 53.8906 362.516 54.4375C362.12 54.9844 361.922 55.7943 361.922 56.8672ZM375.516 61C375.432 60.8333 375.365 60.5365 375.312 60.1094C374.641 60.8073 373.839 61.1562 372.906 61.1562C372.073 61.1562 371.388 60.9219 370.852 60.4531C370.32 59.9792 370.055 59.3802 370.055 58.6562C370.055 57.776 370.388 57.0938 371.055 56.6094C371.727 56.1198 372.669 55.875 373.883 55.875H375.289V55.2109C375.289 54.7057 375.138 54.3047 374.836 54.0078C374.534 53.7057 374.089 53.5547 373.5 53.5547C372.984 53.5547 372.552 53.6849 372.203 53.9453C371.854 54.2057 371.68 54.5208 371.68 54.8906H370.227C370.227 54.4688 370.375 54.0625 370.672 53.6719C370.974 53.276 371.38 52.9635 371.891 52.7344C372.406 52.5052 372.971 52.3906 373.586 52.3906C374.56 52.3906 375.323 52.6354 375.875 53.125C376.427 53.6094 376.714 54.2786 376.734 55.1328V59.0234C376.734 59.7995 376.833 60.4167 377.031 60.875V61H375.516ZM373.117 59.8984C373.57 59.8984 374 59.7812 374.406 59.5469C374.812 59.3125 375.107 59.0078 375.289 58.6328V56.8984H374.156C372.385 56.8984 371.5 57.4167 371.5 58.4531C371.5 58.9062 371.651 59.2604 371.953 59.5156C372.255 59.7708 372.643 59.8984 373.117 59.8984ZM2.45312 81.0859L1.54688 82.0312V85H0.101562V73H1.54688V80.2578L2.32031 79.3281L4.95312 76.5469H6.71094L3.42188 80.0781L7.09375 85H5.39844L2.45312 81.0859ZM10.2734 85H8.82812V76.5469H10.2734V85ZM8.71094 74.3047C8.71094 74.0703 8.78125 73.8724 8.92188 73.7109C9.06771 73.5495 9.28125 73.4688 9.5625 73.4688C9.84375 73.4688 10.0573 73.5495 10.2031 73.7109C10.349 73.8724 10.4219 74.0703 10.4219 74.3047C10.4219 74.5391 10.349 74.7344 10.2031 74.8906C10.0573 75.0469 9.84375 75.125 9.5625 75.125C9.28125 75.125 9.06771 75.0469 8.92188 74.8906C8.78125 74.7344 8.71094 74.5391 8.71094 74.3047ZM15.0547 74.5V76.5469H16.6328V77.6641H15.0547V82.9062C15.0547 83.2448 15.125 83.5 15.2656 83.6719C15.4062 83.8385 15.6458 83.9219 15.9844 83.9219C16.151 83.9219 16.3802 83.8906 16.6719 83.8281V85C16.2917 85.1042 15.9219 85.1562 15.5625 85.1562C14.9167 85.1562 14.4297 84.9609 14.1016 84.5703C13.7734 84.1797 13.6094 83.625 13.6094 82.9062V77.6641H12.0703V76.5469H13.6094V74.5H15.0547ZM18.2891 80.6953C18.2891 79.8672 18.4505 79.1224 18.7734 78.4609C19.1016 77.7995 19.5547 77.2891 20.1328 76.9297C20.7161 76.5703 21.3802 76.3906 22.125 76.3906C23.276 76.3906 24.2057 76.7891 24.9141 77.5859C25.6276 78.3828 25.9844 79.4427 25.9844 80.7656V80.8672C25.9844 81.6901 25.8255 82.4297 25.5078 83.0859C25.1953 83.737 24.7448 84.2448 24.1562 84.6094C23.5729 84.974 22.901 85.1562 22.1406 85.1562C20.9948 85.1562 20.0651 84.7578 19.3516 83.9609C18.6432 83.1641 18.2891 82.1094 18.2891 80.7969V80.6953ZM19.7422 80.8672C19.7422 81.8047 19.9583 82.5573 20.3906 83.125C20.8281 83.6927 21.4115 83.9766 22.1406 83.9766C22.875 83.9766 23.4583 83.6901 23.8906 83.1172C24.3229 82.5391 24.5391 81.7318 24.5391 80.6953C24.5391 79.7682 24.3177 79.0182 23.875 78.4453C23.4375 77.8672 22.8542 77.5781 22.125 77.5781C21.4115 77.5781 20.8359 77.862 20.3984 78.4297C19.9609 78.9974 19.7422 79.8099 19.7422 80.8672ZM35.4531 80.8672C35.4531 82.1589 35.1562 83.1979 34.5625 83.9844C33.9688 84.7656 33.1719 85.1562 32.1719 85.1562C31.1042 85.1562 30.2786 84.7786 29.6953 84.0234L29.625 85H28.2969V73H29.7422V77.4766C30.3255 76.7526 31.1302 76.3906 32.1562 76.3906C33.1823 76.3906 33.987 76.7786 34.5703 77.5547C35.1589 78.3307 35.4531 79.3932 35.4531 80.7422V80.8672ZM34.0078 80.7031C34.0078 79.7188 33.8177 78.9583 33.4375 78.4219C33.0573 77.8854 32.5104 77.6172 31.7969 77.6172C30.8438 77.6172 30.1589 78.0599 29.7422 78.9453V82.6016C30.1849 83.487 30.875 83.9297 31.8125 83.9297C32.5052 83.9297 33.0443 83.6615 33.4297 83.125C33.8151 82.5885 34.0078 81.7812 34.0078 80.7031ZM37.4297 80.7031C37.4297 79.4062 37.737 78.3646 38.3516 77.5781C38.9661 76.7865 39.7708 76.3906 40.7656 76.3906C41.7552 76.3906 42.5391 76.7292 43.1172 77.4062V73H44.5625V85H43.2344L43.1641 84.0938C42.5859 84.8021 41.7812 85.1562 40.75 85.1562C39.7708 85.1562 38.9714 84.7552 38.3516 83.9531C37.737 83.151 37.4297 82.1042 37.4297 80.8125V80.7031ZM38.875 80.8672C38.875 81.8255 39.0729 82.5755 39.4688 83.1172C39.8646 83.6589 40.4115 83.9297 41.1094 83.9297C42.026 83.9297 42.6953 83.5182 43.1172 82.6953V78.8125C42.6849 78.0156 42.0208 77.6172 41.125 77.6172C40.4167 77.6172 39.8646 77.8906 39.4688 78.4375C39.0729 78.9844 38.875 79.7943 38.875 80.8672ZM52.5312 85C52.4479 84.8333 52.3802 84.5365 52.3281 84.1094C51.6562 84.8073 50.8542 85.1562 49.9219 85.1562C49.0885 85.1562 48.4036 84.9219 47.8672 84.4531C47.3359 83.9792 47.0703 83.3802 47.0703 82.6562C47.0703 81.776 47.4036 81.0938 48.0703 80.6094C48.7422 80.1198 49.6849 79.875 50.8984 79.875H52.3047V79.2109C52.3047 78.7057 52.1536 78.3047 51.8516 78.0078C51.5495 77.7057 51.1042 77.5547 50.5156 77.5547C50 77.5547 49.5677 77.6849 49.2188 77.9453C48.8698 78.2057 48.6953 78.5208 48.6953 78.8906H47.2422C47.2422 78.4688 47.3906 78.0625 47.6875 77.6719C47.9896 77.276 48.3958 76.9635 48.9062 76.7344C49.4219 76.5052 49.987 76.3906 50.6016 76.3906C51.5755 76.3906 52.3385 76.6354 52.8906 77.125C53.4427 77.6094 53.7292 78.2786 53.75 79.1328V83.0234C53.75 83.7995 53.849 84.4167 54.0469 84.875V85H52.5312ZM50.1328 83.8984C50.5859 83.8984 51.0156 83.7812 51.4219 83.5469C51.8281 83.3125 52.1224 83.0078 52.3047 82.6328V80.8984H51.1719C49.401 80.8984 48.5156 81.4167 48.5156 82.4531C48.5156 82.9062 48.6667 83.2604 48.9688 83.5156C49.2708 83.7708 49.6589 83.8984 50.1328 83.8984ZM63.3438 81.0859L62.4375 82.0312V85H60.9922V73H62.4375V80.2578L63.2109 79.3281L65.8438 76.5469H67.6016L64.3125 80.0781L67.9844 85H66.2891L63.3438 81.0859ZM69.2109 80.6953C69.2109 79.8672 69.3724 79.1224 69.6953 78.4609C70.0234 77.7995 70.4766 77.2891 71.0547 76.9297C71.638 76.5703 72.3021 76.3906 73.0469 76.3906C74.1979 76.3906 75.1276 76.7891 75.8359 77.5859C76.5495 78.3828 76.9062 79.4427 76.9062 80.7656V80.8672C76.9062 81.6901 76.7474 82.4297 76.4297 83.0859C76.1172 83.737 75.6667 84.2448 75.0781 84.6094C74.4948 84.974 73.8229 85.1562 73.0625 85.1562C71.9167 85.1562 70.987 84.7578 70.2734 83.9609C69.5651 83.1641 69.2109 82.1094 69.2109 80.7969V80.6953ZM70.6641 80.8672C70.6641 81.8047 70.8802 82.5573 71.3125 83.125C71.75 83.6927 72.3333 83.9766 73.0625 83.9766C73.7969 83.9766 74.3802 83.6901 74.8125 83.1172C75.2448 82.5391 75.4609 81.7318 75.4609 80.6953C75.4609 79.7682 75.2396 79.0182 74.7969 78.4453C74.3594 77.8672 73.776 77.5781 73.0469 77.5781C72.3333 77.5781 71.7578 77.862 71.3203 78.4297C70.8828 78.9974 70.6641 79.8099 70.6641 80.8672ZM79.1719 72.8516L80 73.4141C79.5156 74.0755 79.2656 74.7891 79.25 75.5547V76.6172H77.8125V75.7109C77.8125 75.1797 77.9375 74.6536 78.1875 74.1328C78.4427 73.612 78.7708 73.1849 79.1719 72.8516ZM85.9453 77.8438C85.7266 77.8073 85.4896 77.7891 85.2344 77.7891C84.2865 77.7891 83.6432 78.1927 83.3047 79V85H81.8594V76.5469H83.2656L83.2891 77.5234C83.763 76.7682 84.4349 76.3906 85.3047 76.3906C85.5859 76.3906 85.7995 76.4271 85.9453 76.5V77.8438ZM92.7031 82.7578C92.7031 82.3672 92.5547 82.0651 92.2578 81.8516C91.9661 81.6328 91.4531 81.4453 90.7188 81.2891C89.9896 81.1328 89.4089 80.9453 88.9766 80.7266C88.5495 80.5078 88.2318 80.2474 88.0234 79.9453C87.8203 79.6432 87.7188 79.2839 87.7188 78.8672C87.7188 78.1745 88.0104 77.5885 88.5938 77.1094C89.1823 76.6302 89.9323 76.3906 90.8438 76.3906C91.8021 76.3906 92.5781 76.638 93.1719 77.1328C93.7708 77.6276 94.0703 78.2604 94.0703 79.0312H92.6172C92.6172 78.6354 92.4479 78.2943 92.1094 78.0078C91.776 77.7214 91.3542 77.5781 90.8438 77.5781C90.3177 77.5781 89.9062 77.6927 89.6094 77.9219C89.3125 78.151 89.1641 78.4505 89.1641 78.8203C89.1641 79.1693 89.3021 79.4323 89.5781 79.6094C89.8542 79.7865 90.3516 79.9557 91.0703 80.1172C91.7943 80.2786 92.3802 80.4714 92.8281 80.6953C93.276 80.9193 93.6068 81.1901 93.8203 81.5078C94.0391 81.8203 94.1484 82.2031 94.1484 82.6562C94.1484 83.4115 93.8464 84.0182 93.2422 84.4766C92.638 84.9297 91.8542 85.1562 90.8906 85.1562C90.2135 85.1562 89.6146 85.0365 89.0938 84.7969C88.5729 84.5573 88.1641 84.224 87.8672 83.7969C87.5755 83.3646 87.4297 82.8984 87.4297 82.3984H88.875C88.901 82.8828 89.0938 83.2682 89.4531 83.5547C89.8177 83.8359 90.2969 83.9766 90.8906 83.9766C91.4375 83.9766 91.875 83.8672 92.2031 83.6484C92.5365 83.4245 92.7031 83.1276 92.7031 82.7578ZM101.75 85C101.667 84.8333 101.599 84.5365 101.547 84.1094C100.875 84.8073 100.073 85.1562 99.1406 85.1562C98.3073 85.1562 97.6224 84.9219 97.0859 84.4531C96.5547 83.9792 96.2891 83.3802 96.2891 82.6562C96.2891 81.776 96.6224 81.0938 97.2891 80.6094C97.9609 80.1198 98.9036 79.875 100.117 79.875H101.523V79.2109C101.523 78.7057 101.372 78.3047 101.07 78.0078C100.768 77.7057 100.323 77.5547 99.7344 77.5547C99.2188 77.5547 98.7865 77.6849 98.4375 77.9453C98.0885 78.2057 97.9141 78.5208 97.9141 78.8906H96.4609C96.4609 78.4688 96.6094 78.0625 96.9062 77.6719C97.2083 77.276 97.6146 76.9635 98.125 76.7344C98.6406 76.5052 99.2057 76.3906 99.8203 76.3906C100.794 76.3906 101.557 76.6354 102.109 77.125C102.661 77.6094 102.948 78.2786 102.969 79.1328V83.0234C102.969 83.7995 103.068 84.4167 103.266 84.875V85H101.75ZM99.3516 83.8984C99.8047 83.8984 100.234 83.7812 100.641 83.5469C101.047 83.3125 101.341 83.0078 101.523 82.6328V80.8984H100.391C98.6198 80.8984 97.7344 81.4167 97.7344 82.4531C97.7344 82.9062 97.8854 83.2604 98.1875 83.5156C98.4896 83.7708 98.8776 83.8984 99.3516 83.8984ZM107.695 74.5V76.5469H109.273V77.6641H107.695V82.9062C107.695 83.2448 107.766 83.5 107.906 83.6719C108.047 83.8385 108.286 83.9219 108.625 83.9219C108.792 83.9219 109.021 83.8906 109.312 83.8281V85C108.932 85.1042 108.562 85.1562 108.203 85.1562C107.557 85.1562 107.07 84.9609 106.742 84.5703C106.414 84.1797 106.25 83.625 106.25 82.9062V77.6641H104.711V76.5469H106.25V74.5H107.695ZM113.039 85H111.594V76.5469H113.039V85ZM111.477 74.3047C111.477 74.0703 111.547 73.8724 111.688 73.7109C111.833 73.5495 112.047 73.4688 112.328 73.4688C112.609 73.4688 112.823 73.5495 112.969 73.7109C113.115 73.8724 113.188 74.0703 113.188 74.3047C113.188 74.5391 113.115 74.7344 112.969 74.8906C112.823 75.0469 112.609 75.125 112.328 75.125C112.047 75.125 111.833 75.0469 111.688 74.8906C111.547 74.7344 111.477 74.5391 111.477 74.3047ZM117.43 85H115.984V73H117.43V85ZM119.906 80.7031C119.906 79.3854 120.211 78.3385 120.82 77.5625C121.43 76.7812 122.237 76.3906 123.242 76.3906C124.273 76.3906 125.078 76.7552 125.656 77.4844L125.727 76.5469H127.047V84.7969C127.047 85.8906 126.721 86.7526 126.07 87.3828C125.424 88.013 124.555 88.3281 123.461 88.3281C122.852 88.3281 122.255 88.1979 121.672 87.9375C121.089 87.6771 120.643 87.3203 120.336 86.8672L121.086 86C121.706 86.7656 122.464 87.1484 123.359 87.1484C124.062 87.1484 124.609 86.9505 125 86.5547C125.396 86.1589 125.594 85.6016 125.594 84.8828V84.1562C125.016 84.8229 124.227 85.1562 123.227 85.1562C122.237 85.1562 121.435 84.7578 120.82 83.9609C120.211 83.1641 119.906 82.0781 119.906 80.7031ZM121.359 80.8672C121.359 81.8203 121.555 82.5703 121.945 83.1172C122.336 83.6589 122.883 83.9297 123.586 83.9297C124.497 83.9297 125.167 83.5156 125.594 82.6875V78.8281C125.151 78.0208 124.487 77.6172 123.602 77.6172C122.898 77.6172 122.349 77.8906 121.953 78.4375C121.557 78.9844 121.359 79.7943 121.359 80.8672ZM134.953 85C134.87 84.8333 134.802 84.5365 134.75 84.1094C134.078 84.8073 133.276 85.1562 132.344 85.1562C131.51 85.1562 130.826 84.9219 130.289 84.4531C129.758 83.9792 129.492 83.3802 129.492 82.6562C129.492 81.776 129.826 81.0938 130.492 80.6094C131.164 80.1198 132.107 79.875 133.32 79.875H134.727V79.2109C134.727 78.7057 134.576 78.3047 134.273 78.0078C133.971 77.7057 133.526 77.5547 132.938 77.5547C132.422 77.5547 131.99 77.6849 131.641 77.9453C131.292 78.2057 131.117 78.5208 131.117 78.8906H129.664C129.664 78.4688 129.812 78.0625 130.109 77.6719C130.411 77.276 130.818 76.9635 131.328 76.7344C131.844 76.5052 132.409 76.3906 133.023 76.3906C133.997 76.3906 134.76 76.6354 135.312 77.125C135.865 77.6094 136.151 78.2786 136.172 79.1328V83.0234C136.172 83.7995 136.271 84.4167 136.469 84.875V85H134.953ZM132.555 83.8984C133.008 83.8984 133.438 83.7812 133.844 83.5469C134.25 83.3125 134.544 83.0078 134.727 82.6328V80.8984H133.594C131.823 80.8984 130.938 81.4167 130.938 82.4531C130.938 82.9062 131.089 83.2604 131.391 83.5156C131.693 83.7708 132.081 83.8984 132.555 83.8984ZM140.305 76.5469L140.352 77.6094C140.997 76.7969 141.841 76.3906 142.883 76.3906C144.669 76.3906 145.57 77.3984 145.586 79.4141V85H144.141V79.4062C144.135 78.7969 143.995 78.3464 143.719 78.0547C143.448 77.763 143.023 77.6172 142.445 77.6172C141.977 77.6172 141.565 77.7422 141.211 77.9922C140.857 78.2422 140.581 78.5703 140.383 78.9766V85H138.938V76.5469H140.305ZM161.648 79.6797C161.648 80.7786 161.474 81.7266 161.125 82.5234C160.776 83.3151 160.286 83.9349 159.656 84.3828L161.688 85.9766L160.664 86.9219L158.266 85.0156C157.891 85.1094 157.495 85.1562 157.078 85.1562C156.182 85.1562 155.388 84.9375 154.695 84.5C154.003 84.0573 153.464 83.4297 153.078 82.6172C152.698 81.7995 152.503 80.8542 152.492 79.7812V78.9609C152.492 77.8672 152.682 76.901 153.062 76.0625C153.443 75.224 153.979 74.5833 154.672 74.1406C155.37 73.6927 156.167 73.4688 157.062 73.4688C157.979 73.4688 158.784 73.6901 159.477 74.1328C160.174 74.5755 160.711 75.2135 161.086 76.0469C161.461 76.875 161.648 77.8438 161.648 78.9531V79.6797ZM160.148 78.9453C160.148 77.6068 159.88 76.5755 159.344 75.8516C158.812 75.1224 158.052 74.7578 157.062 74.7578C156.12 74.7578 155.375 75.1198 154.828 75.8438C154.286 76.5625 154.008 77.5625 153.992 78.8438V79.6797C153.992 80.9818 154.263 82.0078 154.805 82.7578C155.352 83.5078 156.109 83.8828 157.078 83.8828C158.047 83.8828 158.797 83.5312 159.328 82.8281C159.859 82.1198 160.133 81.1068 160.148 79.7891V78.9453ZM168.633 80.3984H165.961V85H164.453V73.625H168.219C169.5 73.625 170.484 73.9167 171.172 74.5C171.865 75.0833 172.211 75.9323 172.211 77.0469C172.211 77.7552 172.018 78.3724 171.633 78.8984C171.253 79.4245 170.721 79.8177 170.039 80.0781L172.711 84.9062V85H171.102L168.633 80.3984ZM165.961 79.1719H168.266C169.01 79.1719 169.602 78.9792 170.039 78.5938C170.482 78.2083 170.703 77.6927 170.703 77.0469C170.703 76.3438 170.492 75.8047 170.07 75.4297C169.654 75.0547 169.049 74.8646 168.258 74.8594H165.961V79.1719ZM181.422 81.0859L180.516 82.0312V85H179.07V73H180.516V80.2578L181.289 79.3281L183.922 76.5469H185.68L182.391 80.0781L186.062 85H184.367L181.422 81.0859ZM187.289 80.6953C187.289 79.8672 187.451 79.1224 187.773 78.4609C188.102 77.7995 188.555 77.2891 189.133 76.9297C189.716 76.5703 190.38 76.3906 191.125 76.3906C192.276 76.3906 193.206 76.7891 193.914 77.5859C194.628 78.3828 194.984 79.4427 194.984 80.7656V80.8672C194.984 81.6901 194.826 82.4297 194.508 83.0859C194.195 83.737 193.745 84.2448 193.156 84.6094C192.573 84.974 191.901 85.1562 191.141 85.1562C189.995 85.1562 189.065 84.7578 188.352 83.9609C187.643 83.1641 187.289 82.1094 187.289 80.7969V80.6953ZM188.742 80.8672C188.742 81.8047 188.958 82.5573 189.391 83.125C189.828 83.6927 190.411 83.9766 191.141 83.9766C191.875 83.9766 192.458 83.6901 192.891 83.1172C193.323 82.5391 193.539 81.7318 193.539 80.6953C193.539 79.7682 193.318 79.0182 192.875 78.4453C192.438 77.8672 191.854 77.5781 191.125 77.5781C190.411 77.5781 189.836 77.862 189.398 78.4297C188.961 78.9974 188.742 79.8099 188.742 80.8672ZM196.945 80.7031C196.945 79.4062 197.253 78.3646 197.867 77.5781C198.482 76.7865 199.286 76.3906 200.281 76.3906C201.271 76.3906 202.055 76.7292 202.633 77.4062V73H204.078V85H202.75L202.68 84.0938C202.102 84.8021 201.297 85.1562 200.266 85.1562C199.286 85.1562 198.487 84.7552 197.867 83.9531C197.253 83.151 196.945 82.1042 196.945 80.8125V80.7031ZM198.391 80.8672C198.391 81.8255 198.589 82.5755 198.984 83.1172C199.38 83.6589 199.927 83.9297 200.625 83.9297C201.542 83.9297 202.211 83.5182 202.633 82.6953V78.8125C202.201 78.0156 201.536 77.6172 200.641 77.6172C199.932 77.6172 199.38 77.8906 198.984 78.4375C198.589 78.9844 198.391 79.7943 198.391 80.8672ZM210.914 80.6953C210.914 79.8672 211.076 79.1224 211.398 78.4609C211.727 77.7995 212.18 77.2891 212.758 76.9297C213.341 76.5703 214.005 76.3906 214.75 76.3906C215.901 76.3906 216.831 76.7891 217.539 77.5859C218.253 78.3828 218.609 79.4427 218.609 80.7656V80.8672C218.609 81.6901 218.451 82.4297 218.133 83.0859C217.82 83.737 217.37 84.2448 216.781 84.6094C216.198 84.974 215.526 85.1562 214.766 85.1562C213.62 85.1562 212.69 84.7578 211.977 83.9609C211.268 83.1641 210.914 82.1094 210.914 80.7969V80.6953ZM212.367 80.8672C212.367 81.8047 212.583 82.5573 213.016 83.125C213.453 83.6927 214.036 83.9766 214.766 83.9766C215.5 83.9766 216.083 83.6901 216.516 83.1172C216.948 82.5391 217.164 81.7318 217.164 80.6953C217.164 79.7682 216.943 79.0182 216.5 78.4453C216.062 77.8672 215.479 77.5781 214.75 77.5781C214.036 77.5781 213.461 77.862 213.023 78.4297C212.586 78.9974 212.367 79.8099 212.367 80.8672ZM225.008 77.8438C224.789 77.8073 224.552 77.7891 224.297 77.7891C223.349 77.7891 222.706 78.1927 222.367 79V85H220.922V76.5469H222.328L222.352 77.5234C222.826 76.7682 223.497 76.3906 224.367 76.3906C224.648 76.3906 224.862 76.4271 225.008 76.5V77.8438ZM226.336 80.7031C226.336 79.375 226.641 78.3255 227.25 77.5547C227.859 76.7786 228.677 76.3906 229.703 76.3906C230.703 76.3906 231.492 76.7266 232.07 77.3984L232.133 76.5469H233.461V88.25H232.016V84.2188C231.432 84.8438 230.656 85.1562 229.688 85.1562C228.667 85.1562 227.852 84.7604 227.242 83.9688C226.638 83.1719 226.336 82.1172 226.336 80.8047V80.7031ZM227.781 80.8672C227.781 81.8359 227.984 82.5964 228.391 83.1484C228.802 83.7005 229.354 83.9766 230.047 83.9766C230.906 83.9766 231.562 83.5964 232.016 82.8359V78.6953C231.557 77.9505 230.906 77.5781 230.062 77.5781C229.365 77.5781 228.81 77.8568 228.398 78.4141C227.987 78.9661 227.781 79.7839 227.781 80.8672ZM241.5 85C241.417 84.8333 241.349 84.5365 241.297 84.1094C240.625 84.8073 239.823 85.1562 238.891 85.1562C238.057 85.1562 237.372 84.9219 236.836 84.4531C236.305 83.9792 236.039 83.3802 236.039 82.6562C236.039 81.776 236.372 81.0938 237.039 80.6094C237.711 80.1198 238.654 79.875 239.867 79.875H241.273V79.2109C241.273 78.7057 241.122 78.3047 240.82 78.0078C240.518 77.7057 240.073 77.5547 239.484 77.5547C238.969 77.5547 238.536 77.6849 238.188 77.9453C237.839 78.2057 237.664 78.5208 237.664 78.8906H236.211C236.211 78.4688 236.359 78.0625 236.656 77.6719C236.958 77.276 237.365 76.9635 237.875 76.7344C238.391 76.5052 238.956 76.3906 239.57 76.3906C240.544 76.3906 241.307 76.6354 241.859 77.125C242.411 77.6094 242.698 78.2786 242.719 79.1328V83.0234C242.719 83.7995 242.818 84.4167 243.016 84.875V85H241.5ZM239.102 83.8984C239.555 83.8984 239.984 83.7812 240.391 83.5469C240.797 83.3125 241.091 83.0078 241.273 82.6328V80.8984H240.141C238.37 80.8984 237.484 81.4167 237.484 82.4531C237.484 82.9062 237.635 83.2604 237.938 83.5156C238.24 83.7708 238.628 83.8984 239.102 83.8984ZM247.055 85H245.609V73H247.055V85ZM251.445 85H250V76.5469H251.445V85ZM249.883 74.3047C249.883 74.0703 249.953 73.8724 250.094 73.7109C250.24 73.5495 250.453 73.4688 250.734 73.4688C251.016 73.4688 251.229 73.5495 251.375 73.7109C251.521 73.8724 251.594 74.0703 251.594 74.3047C251.594 74.5391 251.521 74.7344 251.375 74.8906C251.229 75.0469 251.016 75.125 250.734 75.125C250.453 75.125 250.24 75.0469 250.094 74.8906C249.953 74.7344 249.883 74.5391 249.883 74.3047ZM258.352 80.6953C258.352 79.8672 258.513 79.1224 258.836 78.4609C259.164 77.7995 259.617 77.2891 260.195 76.9297C260.779 76.5703 261.443 76.3906 262.188 76.3906C263.339 76.3906 264.268 76.7891 264.977 77.5859C265.69 78.3828 266.047 79.4427 266.047 80.7656V80.8672C266.047 81.6901 265.888 82.4297 265.57 83.0859C265.258 83.737 264.807 84.2448 264.219 84.6094C263.635 84.974 262.964 85.1562 262.203 85.1562C261.057 85.1562 260.128 84.7578 259.414 83.9609C258.706 83.1641 258.352 82.1094 258.352 80.7969V80.6953ZM259.805 80.8672C259.805 81.8047 260.021 82.5573 260.453 83.125C260.891 83.6927 261.474 83.9766 262.203 83.9766C262.938 83.9766 263.521 83.6901 263.953 83.1172C264.385 82.5391 264.602 81.7318 264.602 80.6953C264.602 79.7682 264.38 79.0182 263.938 78.4453C263.5 77.8672 262.917 77.5781 262.188 77.5781C261.474 77.5781 260.898 77.862 260.461 78.4297C260.023 78.9974 259.805 79.8099 259.805 80.8672ZM268.312 72.8516L269.141 73.4141C268.656 74.0755 268.406 74.7891 268.391 75.5547V76.6172H266.953V75.7109C266.953 75.1797 267.078 74.6536 267.328 74.1328C267.583 73.612 267.911 73.1849 268.312 72.8516ZM272.961 74.5V76.5469H274.539V77.6641H272.961V82.9062C272.961 83.2448 273.031 83.5 273.172 83.6719C273.312 83.8385 273.552 83.9219 273.891 83.9219C274.057 83.9219 274.286 83.8906 274.578 83.8281V85C274.198 85.1042 273.828 85.1562 273.469 85.1562C272.823 85.1562 272.336 84.9609 272.008 84.5703C271.68 84.1797 271.516 83.625 271.516 82.9062V77.6641H269.977V76.5469H271.516V74.5H272.961ZM278.305 85H276.859V76.5469H278.305V85ZM276.742 74.3047C276.742 74.0703 276.812 73.8724 276.953 73.7109C277.099 73.5495 277.312 73.4688 277.594 73.4688C277.875 73.4688 278.089 73.5495 278.234 73.7109C278.38 73.8724 278.453 74.0703 278.453 74.3047C278.453 74.5391 278.38 74.7344 278.234 74.8906C278.089 75.0469 277.875 75.125 277.594 75.125C277.312 75.125 277.099 75.0469 276.953 74.8906C276.812 74.7344 276.742 74.5391 276.742 74.3047ZM286.047 82.7578C286.047 82.3672 285.898 82.0651 285.602 81.8516C285.31 81.6328 284.797 81.4453 284.062 81.2891C283.333 81.1328 282.753 80.9453 282.32 80.7266C281.893 80.5078 281.576 80.2474 281.367 79.9453C281.164 79.6432 281.062 79.2839 281.062 78.8672C281.062 78.1745 281.354 77.5885 281.938 77.1094C282.526 76.6302 283.276 76.3906 284.188 76.3906C285.146 76.3906 285.922 76.638 286.516 77.1328C287.115 77.6276 287.414 78.2604 287.414 79.0312H285.961C285.961 78.6354 285.792 78.2943 285.453 78.0078C285.12 77.7214 284.698 77.5781 284.188 77.5781C283.661 77.5781 283.25 77.6927 282.953 77.9219C282.656 78.151 282.508 78.4505 282.508 78.8203C282.508 79.1693 282.646 79.4323 282.922 79.6094C283.198 79.7865 283.695 79.9557 284.414 80.1172C285.138 80.2786 285.724 80.4714 286.172 80.6953C286.62 80.9193 286.951 81.1901 287.164 81.5078C287.383 81.8203 287.492 82.2031 287.492 82.6562C287.492 83.4115 287.19 84.0182 286.586 84.4766C285.982 84.9297 285.198 85.1562 284.234 85.1562C283.557 85.1562 282.958 85.0365 282.438 84.7969C281.917 84.5573 281.508 84.224 281.211 83.7969C280.919 83.3646 280.773 82.8984 280.773 82.3984H282.219C282.245 82.8828 282.438 83.2682 282.797 83.5547C283.161 83.8359 283.641 83.9766 284.234 83.9766C284.781 83.9766 285.219 83.8672 285.547 83.6484C285.88 83.4245 286.047 83.1276 286.047 82.7578ZM291.32 77.5703C291.961 76.7839 292.794 76.3906 293.82 76.3906C295.607 76.3906 296.508 77.3984 296.523 79.4141V85H295.078V79.4062C295.073 78.7969 294.932 78.3464 294.656 78.0547C294.385 77.763 293.961 77.6172 293.383 77.6172C292.914 77.6172 292.503 77.7422 292.148 77.9922C291.794 78.2422 291.518 78.5703 291.32 78.9766V85H289.875V73H291.32V77.5703ZM305.016 76.5469L305.055 77.4844C305.674 76.7552 306.51 76.3906 307.562 76.3906C308.745 76.3906 309.549 76.8438 309.977 77.75C310.258 77.3438 310.622 77.0156 311.07 76.7656C311.523 76.5156 312.057 76.3906 312.672 76.3906C314.526 76.3906 315.469 77.3724 315.5 79.3359V85H314.055V79.4219C314.055 78.8177 313.917 78.3672 313.641 78.0703C313.365 77.7682 312.901 77.6172 312.25 77.6172C311.714 77.6172 311.268 77.7786 310.914 78.1016C310.56 78.4193 310.354 78.849 310.297 79.3906V85H308.844V79.4609C308.844 78.2318 308.242 77.6172 307.039 77.6172C306.091 77.6172 305.443 78.0208 305.094 78.8281V85H303.648V76.5469H305.016ZM323.406 84.1641C322.844 84.8255 322.018 85.1562 320.93 85.1562C320.029 85.1562 319.341 84.8958 318.867 84.375C318.398 83.849 318.161 83.0729 318.156 82.0469V76.5469H319.602V82.0078C319.602 83.2891 320.122 83.9297 321.164 83.9297C322.268 83.9297 323.003 83.5182 323.367 82.6953V76.5469H324.812V85H323.438L323.406 84.1641ZM328.875 76.5469L328.914 77.4844C329.534 76.7552 330.37 76.3906 331.422 76.3906C332.604 76.3906 333.409 76.8438 333.836 77.75C334.117 77.3438 334.482 77.0156 334.93 76.7656C335.383 76.5156 335.917 76.3906 336.531 76.3906C338.385 76.3906 339.328 77.3724 339.359 79.3359V85H337.914V79.4219C337.914 78.8177 337.776 78.3672 337.5 78.0703C337.224 77.7682 336.76 77.6172 336.109 77.6172C335.573 77.6172 335.128 77.7786 334.773 78.1016C334.419 78.4193 334.214 78.849 334.156 79.3906V85H332.703V79.4609C332.703 78.2318 332.102 77.6172 330.898 77.6172C329.951 77.6172 329.302 78.0208 328.953 78.8281V85H327.508V76.5469H328.875ZM344.406 81.0859L343.5 82.0312V85H342.055V73H343.5V80.2578L344.273 79.3281L346.906 76.5469H348.664L345.375 80.0781L349.047 85H347.352L344.406 81.0859ZM352.227 85H350.781V76.5469H352.227V85ZM350.664 74.3047C350.664 74.0703 350.734 73.8724 350.875 73.7109C351.021 73.5495 351.234 73.4688 351.516 73.4688C351.797 73.4688 352.01 73.5495 352.156 73.7109C352.302 73.8724 352.375 74.0703 352.375 74.3047C352.375 74.5391 352.302 74.7344 352.156 74.8906C352.01 75.0469 351.797 75.125 351.516 75.125C351.234 75.125 351.021 75.0469 350.875 74.8906C350.734 74.7344 350.664 74.5391 350.664 74.3047ZM356.414 76.5469L356.461 77.6094C357.107 76.7969 357.951 76.3906 358.992 76.3906C360.779 76.3906 361.68 77.3984 361.695 79.4141V85H360.25V79.4062C360.245 78.7969 360.104 78.3464 359.828 78.0547C359.557 77.763 359.133 77.6172 358.555 77.6172C358.086 77.6172 357.674 77.7422 357.32 77.9922C356.966 78.2422 356.69 78.5703 356.492 78.9766V85H355.047V76.5469H356.414ZM364.406 84.2422C364.406 83.9922 364.479 83.7839 364.625 83.6172C364.776 83.4505 365 83.3672 365.297 83.3672C365.594 83.3672 365.818 83.4505 365.969 83.6172C366.125 83.7839 366.203 83.9922 366.203 84.2422C366.203 84.4818 366.125 84.6823 365.969 84.8438C365.818 85.0052 365.594 85.0859 365.297 85.0859C365 85.0859 364.776 85.0052 364.625 84.8438C364.479 84.6823 364.406 84.4818 364.406 84.2422Z" fill="white"/>
</svg>
